<svg width="64" height="69" viewBox="0 0 64 69" fill="none" xmlns="http://www.w3.org/2000/svg">
<path d="M63.0386 48.7168C62.7307 47.8528 62.371 47.0168 62.0288 46.2422C61.502 45.0507 60.9503 43.857 60.4165 42.7031L60.3743 42.6115C55.6144 32.3038 50.5055 21.8551 45.1898 11.556L44.9641 11.1187C44.4218 10.067 43.8613 8.97956 43.2859 7.91105C42.6038 6.55883 41.7759 5.28482 40.8173 4.11159C39.738 2.82413 38.389 1.78868 36.8652 1.07827C35.3415 0.367865 33.6801 -0.000211075 31.9983 9.08082e-08C30.3165 0.000211257 28.6553 0.368704 27.1316 1.0795C25.6081 1.79029 24.2592 2.82608 23.1804 4.1138C22.2228 5.28731 21.3955 6.56104 20.7131 7.9126C20.1328 8.99069 19.567 10.0882 19.0199 11.1496L18.8103 11.5559C13.4944 21.8558 8.3855 32.3044 3.62564 42.6113L3.55629 42.7612C3.03184 43.8964 2.48961 45.0703 1.97156 46.2417C1.62923 47.0157 1.26995 47.851 0.961794 48.7173C0.07917 51.0772 -0.202083 53.619 0.143318 56.1142C0.509609 58.6358 1.52952 61.0185 3.10203 63.0257C4.67454 65.0329 6.74512 66.5952 9.10866 67.558C10.8939 68.2803 12.8027 68.6495 14.729 68.6452C15.3341 68.6449 15.9387 68.6098 16.5398 68.5398C18.9761 68.2294 21.3258 67.4366 23.4511 66.208C26.239 64.6419 28.9923 62.3465 32 59.0666C35.0077 62.3465 37.7611 64.6419 40.5489 66.208C42.6741 67.4368 45.0239 68.2294 47.4602 68.5398C48.0613 68.6098 48.666 68.6449 49.2711 68.6452C51.1973 68.6495 53.1058 68.2803 54.891 67.558C57.2546 66.5952 59.3253 65.0329 60.8979 63.0257C62.4705 61.0185 63.4906 58.6361 63.857 56.1142C64.2019 53.6187 63.9207 51.0769 63.0386 48.7168ZM32 52.2926C28.2767 47.573 25.8874 43.1902 25.049 39.516C24.7056 38.1393 24.6245 36.7104 24.8101 35.3036C24.9566 34.2724 25.3354 33.2878 25.9181 32.4237C26.635 31.494 27.5563 30.741 28.6109 30.223C29.6654 29.7051 30.8251 29.4357 32.0004 29.4357C33.176 29.4359 34.3355 29.7053 35.39 30.2236C36.4446 30.7417 37.3657 31.4946 38.0826 32.4243C38.6652 33.2888 39.0441 34.2735 39.1906 35.3048C39.3757 36.7123 39.2944 38.1416 38.9503 39.5188C38.1112 43.1926 35.7225 47.5741 32 52.2926ZM59.5081 55.493C59.2519 57.2561 58.5387 58.922 57.4393 60.3254C56.3397 61.7289 54.8919 62.8215 53.2393 63.4946C51.5682 64.1641 49.7547 64.4014 47.9673 64.1843C46.1094 63.9449 44.3188 63.3335 42.7035 62.3864C40.222 60.9923 37.71 58.8521 34.8833 55.7124C39.3832 50.1637 42.1932 45.0495 43.2336 40.4942C43.7019 38.5786 43.8033 36.5919 43.5328 34.639C43.2874 32.9565 42.6628 31.3515 41.706 29.945C40.5852 28.4275 39.123 27.1938 37.4374 26.3437C35.7515 25.4935 33.8893 25.0506 32.0004 25.0506C30.1118 25.0506 28.2494 25.4933 26.5635 26.3432C24.8777 27.1931 23.4155 28.4266 22.2947 29.9441C21.3381 31.3502 20.7135 32.9548 20.4678 34.6368C20.1972 36.5892 20.2982 38.5747 20.7654 40.4897C21.8051 45.0469 24.6153 50.1625 29.1167 55.7128C26.29 58.8521 23.778 60.9923 21.2965 62.3867C19.6812 63.3335 17.8908 63.9451 16.0328 64.1843C14.2453 64.4014 12.4317 64.1641 10.7606 63.4946C9.10795 62.8215 7.6602 61.729 6.56072 60.3256C5.46126 58.922 4.74821 57.2561 4.4922 55.493C4.24596 53.7007 4.45552 51.8754 5.10158 50.1852C5.34716 49.4949 5.63455 48.8174 5.99058 48.0126C6.49426 46.8739 7.02877 45.7166 7.5458 44.5975L7.61524 44.4471C12.3485 34.1979 17.429 23.8074 22.716 13.5637L22.9264 13.1559C23.4646 12.1116 24.0213 11.0319 24.5829 9.98852C25.1201 8.91317 25.7703 7.89786 26.5226 6.95976C27.1891 6.15453 28.0257 5.50622 28.9723 5.06116C29.9192 4.61609 30.9527 4.38527 31.9992 4.38518C33.0456 4.3851 34.0793 4.61577 35.026 5.06067C35.9729 5.50558 36.8095 6.15376 37.4762 6.95888C38.2289 7.89627 38.8793 8.91124 39.4161 9.98654C39.9725 11.0206 40.5242 12.0906 41.058 13.1253L41.2841 13.5642C46.5708 23.8068 51.6512 34.1971 56.3849 44.448L56.4276 44.5402C56.9536 45.6782 57.4974 46.8544 58.0095 48.013C58.366 48.8189 58.6539 49.497 58.8988 50.1848C59.5445 51.8752 59.7541 53.7005 59.5081 55.493Z" fill="#3B3834"/>
</svg>
