<svg width="64" height="64" viewBox="0 0 64 64" fill="none" xmlns="http://www.w3.org/2000/svg">
<path d="M33.3697 7.07843C32.9919 6.74262 32.504 6.55713 31.9985 6.55713C31.493 6.55713 31.0051 6.74262 30.6273 7.07843C28.6607 8.82002 27.0923 10.9648 26.0287 13.3668C24.9652 15.7688 24.4316 18.3717 24.4641 20.9984C24.4672 21.2737 24.5413 21.5435 24.6792 21.7817C24.8171 22.02 25.0142 22.2186 25.2513 22.3584C27.3247 23.585 29.1991 25.1205 30.8097 26.912C30.9597 27.0786 31.1431 27.2118 31.3479 27.3029C31.5527 27.3941 31.7743 27.4412 31.9985 27.4412C32.2227 27.4412 32.4443 27.3941 32.6491 27.3029C32.8539 27.2118 33.0373 27.0786 33.1873 26.912C34.7984 25.1228 36.6727 23.5895 38.7457 22.3648C38.9822 22.2246 39.1786 22.0258 39.316 21.7876C39.4533 21.5494 39.5269 21.2798 39.5297 21.0048C39.5631 18.3778 39.0302 15.7744 37.9672 13.3719C36.9042 10.9693 35.3362 8.82387 33.3697 7.08163V7.07843ZM9.65131 39.0656C9.6263 38.7868 9.65671 38.5058 9.7408 38.2388C9.82488 37.9718 9.96098 37.7241 10.1412 37.5099C10.3215 37.2957 10.5424 37.1194 10.7911 36.9909C11.0398 36.8625 11.3115 36.7846 11.5905 36.7616C15.8511 36.4074 20.115 37.4029 23.7782 39.6073C27.4414 41.8116 30.3179 45.1129 32.0001 49.0432C33.6822 45.1134 36.5582 41.8125 40.2207 39.6082C43.8832 37.404 48.1465 36.4081 52.4065 36.7616C53.5777 36.8576 54.4545 37.888 54.3457 39.0656C53.8857 44.1308 51.5481 48.8408 47.7924 52.2703C44.0366 55.6998 39.1341 57.6009 34.0481 57.6H32.5601C32.3698 57.5997 32.1804 57.5739 31.9969 57.5232C31.8124 57.5742 31.6219 57.6 31.4305 57.6H29.9425C24.8571 57.6001 19.9554 55.6987 16.2003 52.2692C12.4452 48.8398 10.1113 44.1302 9.65131 39.0656ZM32.0001 34.6432C30.3179 30.7129 27.4414 27.4116 23.7782 25.2073C20.115 23.0029 15.8511 22.0074 11.5905 22.3616C11.3115 22.3846 11.0398 22.4625 10.7911 22.5909C10.5424 22.7194 10.3215 22.8957 10.1412 23.1099C9.96098 23.3241 9.82488 23.5718 9.7408 23.8388C9.65671 24.1058 9.6263 24.3868 9.65131 24.6656C9.90357 27.4732 10.7372 30.1976 12.0993 32.6656C12.2367 32.9141 12.4378 33.1215 12.6818 33.2666C12.9259 33.4117 13.2042 33.4892 13.4881 33.4912C16.7241 33.519 19.9197 34.2136 22.8752 35.5317C25.8307 36.8498 28.4827 38.7631 30.6657 41.152C30.8332 41.335 31.041 41.4765 31.2726 41.5653C31.5041 41.6542 31.7532 41.688 32.0001 41.664C32.2465 41.6875 32.4949 41.6534 32.7259 41.5646C32.9569 41.4757 33.1641 41.3345 33.3313 41.152C35.5143 38.7631 38.1663 36.8498 41.1218 35.5317C44.0774 34.2136 47.2729 33.519 50.5089 33.4912C50.7932 33.4889 51.0716 33.4109 51.3157 33.2652C51.5598 33.1196 51.7607 32.9115 51.8977 32.6624C53.2594 30.1954 54.093 27.4721 54.3457 24.6656C54.3707 24.3868 54.3403 24.1058 54.2562 23.8388C54.1721 23.5718 54.036 23.3241 53.8558 23.1099C53.6755 22.8957 53.4547 22.7194 53.2059 22.5909C52.9572 22.4625 52.6855 22.3846 52.4065 22.3616C48.1465 22.0081 43.8832 23.004 40.2207 25.2082C36.5582 27.4125 33.6822 30.7134 32.0001 34.6432Z" fill="#3B3834"/>
</svg>
