<svg width="340" height="140" viewBox="0 0 340 140" fill="none" xmlns="http://www.w3.org/2000/svg">
<path d="M10 60.5C4.75329 60.5 0.5 64.7533 0.5 70C0.5 75.2467 4.75329 79.5 10 79.5V60.5ZM336.718 76.7175C340.427 73.0075 340.427 66.9925 336.718 63.2825L276.26 2.82486C272.55 -0.885125 266.535 -0.885125 262.825 2.82486C259.115 6.53484 259.115 12.5499 262.825 16.2599L316.565 70L262.825 123.74C259.115 127.45 259.115 133.465 262.825 137.175C266.535 140.885 272.55 140.885 276.26 137.175L336.718 76.7175ZM10 79.5H330V60.5H10V79.5Z" fill="#3B3834"/>
</svg>
