<svg width="64" height="65" viewBox="0 0 64 65" fill="none" xmlns="http://www.w3.org/2000/svg">
<path d="M10.2863 60.5789C10.2863 62.4726 8.75096 64.0074 6.85781 64.0074C4.96416 64.0074 3.42929 62.4726 3.42929 60.5789C3.42929 58.6858 4.96416 57.1504 6.85781 57.1504C8.75096 57.1504 10.2863 58.6858 10.2863 60.5789Z" fill="#3B3834"/>
<path d="M51.4285 60.5781H55.9997V64.0066H51.4285V60.5781Z" fill="#3B3834"/>
<path d="M13.7148 35.4376H8.00049V54.9814C9.81907 55.3583 11.3424 56.5933 12.0876 58.2947H55.9996V35.4375L13.7148 35.4376Z" fill="#3B3834"/>
<path d="M19.4282 13.7227C18.7973 13.7231 18.286 14.2344 18.2855 14.8653V18.2938H46.8561V14.8653C46.8556 14.2344 46.3443 13.7231 45.7134 13.7227H19.4282Z" fill="#3B3834"/>
<path d="M14.8573 29.7227H49.1424V33.1512H14.8573V29.7227Z" fill="#3B3834"/>
<path d="M5.71415 21.7228C5.71798 21.3325 5.78925 20.946 5.92509 20.5801H0.000250844C-0.00166239 20.6222 0.0074246 20.6643 0.0256003 20.7025L1.06018 22.532C1.1898 22.763 1.34573 22.8659 1.44283 22.8659L5.71414 22.8654L5.71415 21.7228Z" fill="#3B3834"/>
<path d="M8.00024 29.7227H12.5714V33.1512H8.00024V29.7227Z" fill="#3B3834"/>
<path d="M54.857 20.5801H9.14268C8.51179 20.5806 8.00048 21.0919 8 21.7228V27.4371H55.9992V21.7228C55.9987 21.0919 55.4874 20.5806 54.8565 20.5801H54.857ZM21.3825 24.8198C21.0558 25.1494 20.5617 25.2484 20.1327 25.0704C19.7041 24.8925 19.4257 24.4726 19.4281 24.0086C19.4272 23.7049 19.5463 23.4131 19.7596 23.1969C19.8136 23.1481 19.871 23.1022 19.9303 23.0596C19.9944 23.0161 20.0638 22.9817 20.137 22.9573C20.2015 22.9243 20.2709 22.9008 20.3422 22.8879C20.8802 22.7659 21.4265 23.0587 21.6226 23.5743C21.8048 23.9995 21.7096 24.4926 21.3825 24.8198ZM28.4796 24.4424C28.3754 24.7299 28.1496 24.9556 27.8626 25.0599C27.5857 25.1819 27.2705 25.1819 26.994 25.0599C26.8558 25.002 26.728 24.9207 26.6171 24.8198C26.4018 24.6051 26.2823 24.3123 26.2851 24.0086C26.2894 23.7058 26.4076 23.416 26.6166 23.1969C27.072 22.7669 27.7842 22.7669 28.2395 23.1969C28.4481 23.416 28.5667 23.7058 28.571 24.0086C28.5748 24.1583 28.5432 24.3071 28.4796 24.4424ZM35.0965 24.8198C34.7698 25.147 34.2762 25.2421 33.851 25.0599C33.7113 25.0049 33.5831 24.9231 33.4736 24.8198C33.2589 24.605 33.1393 24.3123 33.1422 24.0086C33.1441 23.8594 33.1752 23.7116 33.234 23.5743C33.2919 23.4356 33.3727 23.3083 33.4736 23.1969C33.9318 22.7741 34.6383 22.7741 35.0965 23.1969C35.1975 23.3084 35.2788 23.4356 35.3366 23.5743C35.5189 23.9995 35.4237 24.4931 35.0965 24.8198ZM41.9536 24.8198C41.6269 25.1494 41.1328 25.2484 40.7037 25.0704C40.2752 24.8925 39.9968 24.4726 39.9992 24.0086C40.0035 23.7058 40.1216 23.416 40.3307 23.1969C40.3847 23.1481 40.4421 23.1022 40.5014 23.0596C40.5655 23.0161 40.6349 22.9817 40.708 22.9573C40.7726 22.9243 40.842 22.9008 40.9132 22.8879C41.2897 22.8171 41.6771 22.9319 41.9536 23.1969C42.1621 23.416 42.2807 23.7058 42.285 24.0086C42.2874 24.3123 42.1683 24.6046 41.9536 24.8198Z" fill="#3B3834"/>
<path d="M58.0749 20.5802C58.2108 20.9461 58.282 21.3325 58.2859 21.7228V22.8655H62.5572C62.6543 22.8655 62.8107 22.7627 62.9398 22.5316L63.9734 20.7025H63.973C63.9926 20.6647 64.0017 20.6226 63.9997 20.5801L58.0749 20.5802Z" fill="#3B3834"/>
<path d="M12.5712 18.2943H15.9997V14.8658C16.0007 13.957 16.3623 13.0855 17.0051 12.4427C17.6479 11.7998 18.5194 11.4382 19.4282 11.4373H45.7139C46.6227 11.4382 47.4941 11.7998 48.137 12.4427C48.7798 13.0855 49.1414 13.957 49.1424 14.8658V18.2943H51.4689C52.2021 15.1082 52.5719 11.8496 52.5709 8.58035C52.5738 5.69905 52.2901 2.82485 51.7238 0L12.28 0.00908786C11.0656 6.05295 11.1512 12.2856 12.5306 18.2941L12.5712 18.2943Z" fill="#3B3834"/>
<path d="M51.4285 29.7227H55.9997V33.1512H51.4285V29.7227Z" fill="#3B3834"/>
</svg>
