<svg fill="none" height="35" viewBox="0 0 64 35" width="64" xmlns="http://www.w3.org/2000/svg"><g fill="#3b3834"><path d="m23.8482 8.67537c-3.9074-3.30118-9.5663-7.14095-16.2358-8.6231756-.87593-.2020694-1.81907.2020706-2.35813.8759356-1.75099 2.35766-5.25427 8.0165-5.25427 16.43797 0 8.4214 3.50328 14.1473 5.1875 16.4379.53901.7411 1.48211 1.078 2.35814.8759 6.66956-1.4821 12.32846-5.3219 16.23586-8.6232-1.8191-1.8863-2.9644-4.3787-2.9644-7.2086v-2.8295c-.0004-2.8971 1.1448-5.4567 3.031-7.34306z"/><path d="m58.8126.928131c-.539-.673878-1.4821-1.078005-2.3581-.8759356-6.6697 1.4821046-12.3285 5.3218746-16.2359 8.6231746 1.8863 1.88633 2.9644 4.37873 2.9644 7.20863v2.8295c0 2.8295-1.1452 5.3219-2.9644 7.2087 3.9074 3.3012 9.5664 7.1409 16.2359 8.6232.8759.202 1.819-.1349 2.3581-.876 1.6842-2.2904 5.1875-8.0169 5.1875-16.4379 0-8.42094-3.5033-13.94528-5.1875-16.303176z"/><path d="m32.7409 9.69141h-1.5494c-3.4357 0-6.265 2.82949-6.265 6.26499v2.8295c0 3.4357 2.8294 6.2651 6.265 6.2651h1.5494c3.4356 0 6.265-2.8295 6.265-6.2651v-2.8295c0-3.4356-2.8295-6.26499-6.265-6.26499z"/></g></svg>