<svg width="64" height="64" viewBox="0 0 64 64" fill="none" xmlns="http://www.w3.org/2000/svg">
<path d="M19.125 9.125V12.5375C20.625 11.6725 22.3125 10.875 24 10.875C26 10.875 27.45 12.12 28.7 13.125C29.95 14.125 31.0125 14.875 32 14.875C32.9875 14.875 34.05 14.125 35.3 13.125C36.55 12.12 38 10.875 40 10.875C41.6875 10.875 43.375 11.6725 44.875 12.5375V9.125H19.125ZM24 13.125C23.0125 13.125 21.025 14 19.475 14.9625C19.35 15.0375 19.2375 15.1125 19.125 15.175V22.875H44.875V15.175C44.7625 15.1125 44.65 15.0375 44.525 14.9625C42.975 14 40.9875 13.125 40 13.125C39.0125 13.125 37.95 13.875 36.7 14.875C35.45 15.875 34 17.125 32 17.125C30 17.125 28.55 15.875 27.3 14.875C26.05 13.875 24.9875 13.125 24 13.125ZM11.125 25.125V28.5375C12.625 27.675 14.325 26.875 16 26.875C18 26.875 19.45 28.125 20.7 29.125C21.95 30.125 23.0125 30.875 24 30.875C24.9875 30.875 26.05 30.125 27.3 29.125C28.55 28.125 30 26.875 32 26.875C34 26.875 35.45 28.125 36.7 29.125C37.95 30.125 39.0125 30.875 40 30.875C40.9875 30.875 42.05 30.125 43.3 29.125C44.55 28.125 46 26.875 48 26.875C49.6875 26.875 51.375 27.675 52.875 28.5375V25.125H11.125ZM16 29.125C15.0125 29.125 13.025 30 11.4688 30.9625C11.35 31.0375 11.2388 31.1 11.125 31.175V38.875H15.9125L15.975 38.7125L16.0375 38.875H31.9625L32 38.7875L32.0375 38.875H47.9625L48.025 38.7125L48.0875 38.875H52.875V31.175C52.7625 31.1125 52.65 31.0375 52.525 30.9625C50.975 30 48.9875 29.125 48 29.125C47.0125 29.125 45.95 29.875 44.7 30.875C43.45 31.875 42 33.125 40 33.125C38 33.125 36.55 31.875 35.3 30.875C34.05 29.875 32.9875 29.125 32 29.125C31.0125 29.125 29.95 29.875 28.7 30.875C27.45 31.875 26 33.125 24 33.125C22 33.125 20.55 31.875 19.3 30.875C18.05 29.875 16.9875 29.125 16 29.125ZM5.125 41.125V41.9625C5.1275 42.025 5.24375 44.2625 5.765 46.55C6.03 47.7125 6.405 48.8625 6.8575 49.6625C7.31 50.475 7.7575 50.825 8.165 50.8875C8.74 50.975 9.43625 50.675 10.2537 49.8875C11.0712 49.1 11.9025 47.9125 12.6125 46.675C14.0125 44.2125 14.9375 41.625 14.9375 41.625L15.1125 41.125H5.125ZM16.875 41.125L17.05 41.6C17.05 41.6 17.9625 44.0375 19.375 46.425C20.075 47.625 20.9 48.8125 21.7375 49.6375C22.575 50.4625 23.375 50.875 24 50.875C24.625 50.875 25.425 50.4625 26.2625 49.6375C27.1 48.8125 27.925 47.625 28.625 46.425C30.0375 44.0375 30.95 41.6 30.95 41.6L31.125 41.125H16.875ZM32.875 41.125L33.05 41.6C33.05 41.6 33.9625 44.0375 35.375 46.425C36.075 47.625 36.9 48.8125 37.7375 49.6375C38.575 50.4625 39.375 50.875 40 50.875C40.625 50.875 41.425 50.4625 42.2625 49.6375C43.1 48.8125 43.925 47.625 44.625 46.425C46.0375 44.0375 46.95 41.6 46.95 41.6L47.125 41.125H32.875ZM48.8875 41.125L49.0625 41.625C49.0625 41.625 49.9875 44.2125 51.3875 46.675C52.1 47.9125 52.925 49.1 53.75 49.8875C54.5625 50.675 55.2625 50.975 55.8375 50.8875C56.2375 50.825 56.6875 50.475 57.1375 49.6625C57.6 48.8625 57.975 47.7125 58.2375 46.55C58.7625 44.2375 58.875 41.95 58.875 41.95V41.125H48.8875ZM32 44.8125C31.6125 45.65 31.15 46.5875 30.5625 47.575C29.8 48.875 28.9 50.1875 27.8375 51.2375C26.775 52.2875 25.5 53.125 24 53.125C22.5 53.125 21.225 52.2875 20.1625 51.2375C19.1 50.1875 18.2 48.875 17.4375 47.575C16.8625 46.6125 16.4125 45.7 16.025 44.875C15.625 45.7625 15.15 46.7625 14.5625 47.7875C13.8 49.1375 12.8875 50.475 11.81 51.5125C10.7325 52.55 9.3725 53.3375 7.835 53.1125C6.6225 52.9375 5.7475 52.1125 5.125 51.1375V60.875H58.875V51.1375C58.2625 52.1125 57.3875 52.9375 56.1625 53.1125C54.625 53.3375 53.2625 52.55 52.1875 51.5125C51.1125 50.475 50.2 49.1375 49.4375 47.7875C48.85 46.7625 48.375 45.7625 47.975 44.875C47.5875 45.7 47.1375 46.6125 46.5625 47.575C45.8 48.875 44.9 50.1875 43.8375 51.2375C42.775 52.2875 41.5 53.125 40 53.125C38.5 53.125 37.225 52.2875 36.1625 51.2375C35.1 50.1875 34.2 48.875 33.4375 47.575C32.85 46.5875 32.3875 45.65 32 44.8125Z" fill="#3B3834"/>
</svg>
