<svg width="64" height="64" viewBox="0 0 64 64" fill="none" xmlns="http://www.w3.org/2000/svg">
<path fill-rule="evenodd" clip-rule="evenodd" d="M17.4543 2.90939C17.4543 1.30272 16.1521 0 14.5454 0C12.9388 0 11.6365 1.30272 11.6365 2.90939V5.81827H8.72716C3.90727 5.81827 0 9.72555 0 14.5454V55.2726C0 60.0925 3.90727 63.9998 8.72716 63.9998H55.2728C60.0927 63.9998 64 60.0925 64 55.2726V14.5454C64 9.72555 60.0927 5.81827 55.2728 5.81827H52.3635V2.90939C52.3635 1.30272 51.0612 0 49.4546 0C47.8479 0 46.5457 1.30272 46.5457 2.90939V5.81827H17.4543V2.90939ZM16.0001 31.9995C18.4098 31.9995 20.3637 30.0456 20.3637 27.6359C20.3637 25.2262 18.4098 23.2723 16.0001 23.2723C13.5899 23.2723 11.6365 25.2262 11.6365 27.6359C11.6365 30.0456 13.5899 31.9995 16.0001 31.9995ZM20.3637 45.0902C20.3637 47.4999 18.4098 49.4538 16.0001 49.4538C13.5899 49.4538 11.6365 47.4999 11.6365 45.0902C11.6365 42.6805 13.5899 40.7267 16.0001 40.7267C18.4098 40.7267 20.3637 42.6805 20.3637 45.0902ZM31.9997 31.9995C34.4094 31.9995 36.3633 30.0456 36.3633 27.6359C36.3633 25.2262 34.4094 23.2723 31.9997 23.2723C29.5901 23.2723 27.6362 25.2262 27.6362 27.6359C27.6362 30.0456 29.5901 31.9995 31.9997 31.9995ZM36.3633 45.0902C36.3633 47.4999 34.4094 49.4538 31.9997 49.4538C29.5901 49.4538 27.6362 47.4999 27.6362 45.0902C27.6362 42.6805 29.5901 40.7267 31.9997 40.7267C34.4094 40.7267 36.3633 42.6805 36.3633 45.0902ZM47.9994 31.9995C50.4096 31.9995 52.363 30.0456 52.363 27.6359C52.363 25.2262 50.4096 23.2723 47.9994 23.2723C45.5897 23.2723 43.6358 25.2262 43.6358 27.6359C43.6358 30.0456 45.5897 31.9995 47.9994 31.9995Z" fill="#3B3834"/>
</svg>
