<svg width="16" height="16" viewBox="0 0 16 16" fill="none" xmlns="http://www.w3.org/2000/svg">
<path fill-rule="evenodd" clip-rule="evenodd" d="M4.27991 3.22C4.13773 3.08752 3.94969 3.0154 3.75539 3.01882C3.56109 3.02225 3.3757 3.10096 3.23829 3.23838C3.10087 3.37579 3.02216 3.56118 3.01873 3.75548C3.01531 3.94978 3.08743 4.13782 3.21991 4.28L6.93991 8L3.21991 11.72C3.14622 11.7887 3.08712 11.8715 3.04613 11.9635C3.00514 12.0555 2.98309 12.1548 2.98132 12.2555C2.97954 12.3562 2.99807 12.4562 3.03579 12.5496C3.07351 12.643 3.12965 12.7278 3.20087 12.799C3.27209 12.8703 3.35692 12.9264 3.45031 12.9641C3.5437 13.0018 3.64373 13.0204 3.74443 13.0186C3.84513 13.0168 3.94445 12.9948 4.03645 12.9538C4.12845 12.9128 4.21125 12.8537 4.27991 12.78L7.99991 9.06L11.7199 12.78C11.7886 12.8537 11.8714 12.9128 11.9634 12.9538C12.0554 12.9948 12.1547 13.0168 12.2554 13.0186C12.3561 13.0204 12.4561 13.0018 12.5495 12.9641C12.6429 12.9264 12.7277 12.8703 12.7989 12.799C12.8702 12.7278 12.9263 12.643 12.964 12.5496C13.0018 12.4562 13.0203 12.3562 13.0185 12.2555C13.0167 12.1548 12.9947 12.0555 12.9537 11.9635C12.9127 11.8715 12.8536 11.7887 12.7799 11.72L9.05991 8L12.7799 4.28C12.9124 4.13782 12.9845 3.94978 12.9811 3.75548C12.9777 3.56118 12.8989 3.37579 12.7615 3.23838C12.6241 3.10096 12.4387 3.02225 12.2444 3.01882C12.0501 3.0154 11.8621 3.08752 11.7199 3.22L7.99991 6.94L4.27991 3.22Z" fill="#3B3834"/>
</svg>
