<svg width="194" height="132" viewBox="0 0 194 132" fill="none" xmlns="http://www.w3.org/2000/svg">
<g clip-path="url(#clip0_2522_4562)">
<path d="M0 48.2465C0 48.2465 0 24.3184 24.006 24.3184H60.0194C60.0194 24.3184 60.0194 48.2465 36.0134 48.2465V84.143C36.0134 84.143 60.0194 84.1431 60.0194 108.071H24.006C24.006 108.071 0 108.071 0 84.143V48.2465Z" fill="#205F7E"/>
</g>
<g clip-path="url(#clip1_2522_4562)">
<path d="M66.9902 131.999V36.2868C66.9902 24.3184 78.9888 24.3184 78.9888 24.3184H102.995C127.001 24.3184 127.001 48.2465 127.001 48.2465V84.1431C127.001 108.071 102.995 108.071 102.995 108.071H90.9875C90.9875 108.071 90.9875 131.999 66.9814 131.999" fill="#205F7E"/>
</g>
<g clip-path="url(#clip2_2522_4562)">
<path d="M133.981 0V95.7126C133.981 107.681 145.989 107.681 145.989 107.681H169.995C194.001 107.681 194.001 83.7528 194.001 83.7528V47.8563C194.001 23.9281 169.995 23.9281 169.995 23.9281H157.987C157.987 23.9281 157.987 0 133.981 0Z" fill="#205F7E"/>
</g>
<defs>
<clipPath id="clip0_2522_4562">
<rect width="60.0194" height="83.7528" fill="white" transform="translate(0 24.3184)"/>
</clipPath>
<clipPath id="clip1_2522_4562">
<rect width="60.0194" height="107.681" fill="white" transform="translate(66.9902 24.3184)"/>
</clipPath>
<clipPath id="clip2_2522_4562">
<rect width="60.0194" height="107.681" fill="white" transform="translate(133.981)"/>
</clipPath>
</defs>
</svg>
