<svg width="64" height="64" viewBox="0 0 64 64" fill="none" xmlns="http://www.w3.org/2000/svg">
<path d="M32.0001 26.6666L21.3334 11.7333L25.6001 5.33325H38.4001L42.6667 11.7333L32.0001 26.6666ZM41.3334 18.1333L38.1334 22.6666C44.0001 25.0666 48.0001 30.6666 48.0001 37.3333C48.0001 41.5767 46.3144 45.6464 43.3138 48.647C40.3132 51.6475 36.2435 53.3333 32.0001 53.3333C27.7566 53.3333 23.687 51.6475 20.6864 48.647C17.6858 45.6464 16.0001 41.5767 16.0001 37.3333C16.0001 30.6666 20.0001 25.0666 25.8667 22.6666L22.6667 18.1333C15.4667 21.5999 10.6667 28.7999 10.6667 37.3333C10.6667 42.9912 12.9144 48.4174 16.9151 52.4182C20.9159 56.419 26.3421 58.6666 32.0001 58.6666C37.658 58.6666 43.0843 56.419 47.085 52.4182C51.0858 48.4174 53.3334 42.9912 53.3334 37.3333C53.3334 28.7999 48.5334 21.5999 41.3334 18.1333Z" fill="#3B3834"/>
</svg>
