<svg width="64" height="64" viewBox="0 0 64 64" fill="none" xmlns="http://www.w3.org/2000/svg">
<path d="M16 6C16 5.46957 15.7893 4.96086 15.4142 4.58579C15.0391 4.21071 14.5304 4 14 4C13.4696 4 12.9609 4.21071 12.5858 4.58579C12.2107 4.96086 12 5.46957 12 6V18C11.9995 20.3053 12.7956 22.54 14.2534 24.3258C15.7112 26.1116 17.7413 27.3389 20 27.8V58C20 58.5304 20.2107 59.0391 20.5858 59.4142C20.9609 59.7893 21.4696 60 22 60C22.5304 60 23.0391 59.7893 23.4142 59.4142C23.7893 59.0391 24 58.5304 24 58V27.8C26.2587 27.3389 28.2888 26.1116 29.7466 24.3258C31.2044 22.54 32.0005 20.3053 32 18V6C32 5.46957 31.7893 4.96086 31.4142 4.58579C31.0391 4.21071 30.5304 4 30 4C29.4696 4 28.9609 4.21071 28.5858 4.58579C28.2107 4.96086 28 5.46957 28 6V18C28.0007 19.2413 27.6163 20.4523 26.8999 21.466C26.1835 22.4797 25.1703 23.2462 24 23.66V6C24 5.46957 23.7893 4.96086 23.4142 4.58579C23.0391 4.21071 22.5304 4 22 4C21.4696 4 20.9609 4.21071 20.5858 4.58579C20.2107 4.96086 20 5.46957 20 6V23.66C18.8297 23.2462 17.8165 22.4797 17.1001 21.466C16.3837 20.4523 15.9993 19.2413 16 18V6ZM44 58V32H38C37.4696 32 36.9609 31.7893 36.5858 31.4142C36.2107 31.0391 36 30.5304 36 30V14C36 11.348 37.304 8.868 39.084 7.084C40.868 5.304 43.348 4 46 4C46.5304 4 47.0391 4.21071 47.4142 4.58579C47.7893 4.96086 48 5.46957 48 6V58C48 58.5304 47.7893 59.0391 47.4142 59.4142C47.0391 59.7893 46.5304 60 46 60C45.4696 60 44.9609 59.7893 44.5858 59.4142C44.2107 59.0391 44 58.5304 44 58Z" fill="#3B3834"/>
</svg>
