<svg width="32" height="32" viewBox="0 0 32 32" fill="none" xmlns="http://www.w3.org/2000/svg">
<path d="M29.3334 22.6672C28.9556 22.6672 28.6392 22.5392 28.3841 22.2832C28.1281 22.0281 28.0001 21.7116 28.0001 21.3339V13.4672L17.3001 19.3005C17.1001 19.4116 16.8943 19.4947 16.6827 19.5499C16.4721 19.6059 16.2445 19.6339 16.0001 19.6339C15.7556 19.6339 15.5281 19.6059 15.3174 19.5499C15.1058 19.4947 14.9001 19.4116 14.7001 19.3005L3.46672 13.1672C3.2445 13.0561 3.0725 12.8947 2.95072 12.6832C2.82806 12.4725 2.76672 12.245 2.76672 12.0005C2.76672 11.7561 2.82806 11.5285 2.95072 11.3179C3.0725 11.1063 3.2445 10.945 3.46672 10.8339L14.7334 4.70052C14.9334 4.58941 15.1387 4.50585 15.3494 4.44985C15.5609 4.39474 15.7778 4.36719 16.0001 4.36719C16.2223 4.36719 16.4392 4.39474 16.6507 4.44985C16.8614 4.50585 17.0667 4.58941 17.2667 4.70052L29.9667 11.6339C30.1889 11.745 30.3614 11.9059 30.4841 12.1165C30.6058 12.3281 30.6667 12.5561 30.6667 12.8005V21.3339C30.6667 21.7116 30.5387 22.0281 30.2827 22.2832C30.0276 22.5392 29.7112 22.6672 29.3334 22.6672ZM16.0001 27.6339C15.7778 27.6339 15.5609 27.6063 15.3494 27.5512C15.1387 27.4952 14.9334 27.4116 14.7334 27.3005L8.06672 23.7005C7.62228 23.4561 7.27783 23.1285 7.03339 22.7179C6.78895 22.3063 6.66672 21.845 6.66672 21.3339V16.2672L14.2334 20.3672C14.5223 20.5227 14.8112 20.6614 15.1001 20.7832C15.3889 20.9059 15.6889 20.9672 16.0001 20.9672C16.3112 20.9672 16.6169 20.9005 16.9174 20.7672C17.2169 20.6339 17.5112 20.4894 17.8001 20.3339L25.3334 16.2672V21.3339C25.3334 21.845 25.2112 22.3063 24.9667 22.7179C24.7223 23.1285 24.3778 23.4561 23.9334 23.7005L17.2667 27.3005C17.0667 27.4116 16.8614 27.4952 16.6507 27.5512C16.4392 27.6063 16.2223 27.6339 16.0001 27.6339V27.6339Z" fill="black"/>
</svg>
