<svg width="64" height="64" viewBox="0 0 64 64" fill="none" xmlns="http://www.w3.org/2000/svg">
<path d="M59.7333 34.1334C59.7333 35.265 59.2837 36.3503 58.4836 37.1504C57.6834 37.9506 56.5982 38.4001 55.4666 38.4001H8.53327C7.40168 38.4001 6.31643 37.9506 5.51628 37.1504C4.71612 36.3503 4.2666 35.265 4.2666 34.1334C4.2666 33.0019 4.71612 31.9166 5.51628 31.1165C6.31643 30.3163 7.40168 29.8668 8.53327 29.8668H55.4666C56.5982 29.8668 57.6834 30.3163 58.4836 31.1165C59.2837 31.9166 59.7333 33.0019 59.7333 34.1334ZM14.9333 42.6668H8.53327C8.53327 46.0616 9.88184 49.3173 12.2823 51.7178C14.6828 54.1182 17.9385 55.4668 21.3333 55.4668H42.6666C46.0614 55.4668 49.3171 54.1182 51.7176 51.7178C54.118 49.3173 55.4666 46.0616 55.4666 42.6668H14.9333ZM12.7999 25.6001H8.53327V17.0668C8.53327 14.8036 9.43231 12.6331 11.0326 11.0328C12.6329 9.43249 14.8034 8.53345 17.0666 8.53345H46.9333C49.1965 8.53345 51.3669 9.43249 52.9672 11.0328C54.5676 12.6331 55.4666 14.8036 55.4666 17.0668V25.6001H12.7999ZM46.9333 19.2001C46.9333 19.7659 47.158 20.3085 47.5581 20.7086C47.9582 21.1087 48.5008 21.3334 49.0666 21.3334C49.6324 21.3334 50.175 21.1087 50.5751 20.7086C50.9752 20.3085 51.1999 19.7659 51.1999 19.2001C51.1999 18.6343 50.9752 18.0917 50.5751 17.6916C50.175 17.2915 49.6324 17.0668 49.0666 17.0668C48.5008 17.0668 47.9582 17.2915 47.5581 17.6916C47.158 18.0917 46.9333 18.6343 46.9333 19.2001ZM38.3999 14.9334C38.3999 15.4992 38.6247 16.0419 39.0248 16.4419C39.4249 16.842 39.9675 17.0668 40.5333 17.0668C41.0991 17.0668 41.6417 16.842 42.0418 16.4419C42.4418 16.0419 42.6666 15.4992 42.6666 14.9334C42.6666 14.3677 42.4418 13.825 42.0418 13.425C41.6417 13.0249 41.0991 12.8001 40.5333 12.8001C39.9675 12.8001 39.4249 13.0249 39.0248 13.425C38.6247 13.825 38.3999 14.3677 38.3999 14.9334ZM29.8666 19.2001C29.8666 19.7659 30.0914 20.3085 30.4914 20.7086C30.8915 21.1087 31.4341 21.3334 31.9999 21.3334C32.5657 21.3334 33.1084 21.1087 33.5084 20.7086C33.9085 20.3085 34.1333 19.7659 34.1333 19.2001C34.1333 18.6343 33.9085 18.0917 33.5084 17.6916C33.1084 17.2915 32.5657 17.0668 31.9999 17.0668C31.4341 17.0668 30.8915 17.2915 30.4914 17.6916C30.0914 18.0917 29.8666 18.6343 29.8666 19.2001ZM21.3333 14.9334C21.3333 15.4992 21.558 16.0419 21.9581 16.4419C22.3582 16.842 22.9008 17.0668 23.4666 17.0668C24.0324 17.0668 24.575 16.842 24.9751 16.4419C25.3752 16.0419 25.5999 15.4992 25.5999 14.9334C25.5999 14.3677 25.3752 13.825 24.9751 13.425C24.575 13.0249 24.0324 12.8001 23.4666 12.8001C22.9008 12.8001 22.3582 13.0249 21.9581 13.425C21.558 13.825 21.3333 14.3677 21.3333 14.9334ZM12.7999 19.2001C12.7999 19.7659 13.0247 20.3085 13.4248 20.7086C13.8249 21.1087 14.3675 21.3334 14.9333 21.3334C15.4991 21.3334 16.0417 21.1087 16.4418 20.7086C16.8418 20.3085 17.0666 19.7659 17.0666 19.2001C17.0666 18.6343 16.8418 18.0917 16.4418 17.6916C16.0417 17.2915 15.4991 17.0668 14.9333 17.0668C14.3675 17.0668 13.8249 17.2915 13.4248 17.6916C13.0247 18.0917 12.7999 18.6343 12.7999 19.2001Z" fill="#3B3834"/>
</svg>
