<svg width="64" height="64" viewBox="0 0 64 64" fill="none" xmlns="http://www.w3.org/2000/svg">
<path d="M37.3333 9.33325C37.3333 11.5466 35.5467 13.3333 33.3333 13.3333C31.12 13.3333 29.3333 11.5466 29.3333 9.33325C29.3333 7.11992 31.12 5.33325 33.3333 5.33325C35.5467 5.33325 37.3333 7.11992 37.3333 9.33325ZM22.6667 13.3333C20.4533 13.3333 18.6667 15.1199 18.6667 17.3333C18.6667 19.5466 20.4533 21.3333 22.6667 21.3333C24.88 21.3333 26.6667 19.5466 26.6667 17.3333C26.6667 15.1199 24.88 13.3333 22.6667 13.3333ZM37.3333 31.9999L35.2533 25.9999H43.1467L48.9067 23.1199C49.8933 22.6666 50.2933 21.4399 49.7867 20.4533C49.6738 20.2162 49.5147 20.0041 49.3185 19.8296C49.1224 19.6551 48.8933 19.5216 48.6447 19.4371C48.3961 19.3526 48.1331 19.3187 47.8713 19.3375C47.6094 19.3563 47.3539 19.4274 47.12 19.5466L44.9333 20.6399L43.6267 18.3999C42.8533 16.6666 40.96 15.6799 39.0933 16.1066L32.5067 17.5199C30.6667 17.9199 29.3333 19.5999 29.3333 21.5199V23.3866L22.8533 27.7066H22.88C22.6667 27.8933 22.3733 28.1333 22.2133 28.4533L19.84 33.1733L15.0933 35.5466C14.1067 35.9999 13.7067 37.2533 14.2133 38.2399C14.4547 38.7129 14.8736 39.0711 15.3783 39.236C15.8831 39.4009 16.4326 39.3592 16.9067 39.1199L22.8267 36.1599L25.6 30.6666L29.3333 34.6666C26.6667 42.6666 8 53.3333 8 53.3333C8 53.3333 18.6667 58.6666 32 58.6666C45.3333 58.6666 56 53.3333 56 53.3333C56 53.3333 42.6667 42.6666 37.3333 31.9999ZM44.9333 29.5733L44.08 29.9999H40.88L41.04 30.4266C42.4267 33.1733 44.4533 35.9999 46.6667 38.5066L45.2533 29.4133L44.9333 29.5733Z" fill="#3B3834"/>
</svg>
