<svg width="64" height="64" viewBox="0 0 64 64" fill="none" xmlns="http://www.w3.org/2000/svg">
<path d="M42.5514 30.9799L33.902 31.0371L38.1729 23.509C38.6017 22.7412 39.228 22.1014 39.9862 21.6561C40.7449 21.2103 41.6082 20.9755 42.4879 20.9744C44.274 20.9687 45.9278 21.9164 46.8256 23.4603C47.7235 25.0043 47.7297 26.9103 46.8415 28.46C45.9532 30.0096 44.3057 30.968 42.5196 30.9736L42.5514 30.9799ZM21.4504 30.9799L30.0998 31.0371L25.8289 23.509C25.4 22.7412 24.7737 22.1014 24.0155 21.6561C23.2568 21.2103 22.3935 20.9755 21.5138 20.9744H21.4821C19.696 20.9744 18.0456 21.9271 17.1523 23.4739C16.2595 25.0213 16.2595 26.9268 17.1523 28.4736C18.0456 30.0205 19.6959 30.9738 21.4821 30.9738L21.4504 30.9799ZM64 32C64 40.487 60.6287 48.6256 54.6276 54.6276C48.6265 60.6287 40.4875 64 32 64C23.5125 64 15.3744 60.6287 9.37242 54.6276C3.37133 48.6265 0 40.4875 0 32C0 23.5125 3.37133 15.3744 9.37242 9.37242C15.3735 3.37133 23.5125 0 32 0C40.4842 0.00848647 48.6184 3.38262 54.6174 9.3814C60.6162 15.3808 63.9904 23.5153 63.9988 31.9988L64 32ZM54.4952 32C54.4952 31.475 54.0697 31.0495 53.5447 31.0495H47.2082C47.7304 30.5658 48.1768 30.0063 48.5326 29.3896C49.7507 27.2431 49.7309 24.6106 48.4811 22.4827C47.2319 20.3549 44.9417 19.0553 42.4744 19.0734C40.0066 19.0915 37.7361 20.425 36.5186 22.5709L32.9509 28.8317V10.455C32.9509 9.92996 32.5255 9.50451 32.0004 9.50451C31.4754 9.50451 31.05 9.92996 31.05 10.455V28.8317L27.4822 22.5586C26.2625 20.4149 23.991 19.0848 21.5242 19.0695C19.0575 19.0542 16.7701 20.356 15.5236 22.485C14.2773 24.6133 14.2609 27.2453 15.4812 29.3896C15.8331 30.0051 16.275 30.5647 16.7926 31.0495H10.4561C9.93109 31.0495 9.50563 31.475 9.50563 32C9.50563 32.525 9.93109 32.9505 10.4561 32.9505H30.0986L23.2427 39.8194C22.8954 40.1957 22.9078 40.779 23.2716 41.1394C23.6354 41.4997 24.2192 41.5071 24.5921 41.1563L31.0491 34.6421V53.5445C31.0491 54.0695 31.4746 54.495 31.9996 54.495C32.5246 54.495 32.9501 54.0695 32.9501 53.5445V34.6421L39.4071 41.1563C39.5819 41.3459 39.8263 41.4562 40.0843 41.4618C40.3417 41.4675 40.5907 41.3679 40.774 41.1869C40.9573 41.0053 41.0591 40.7569 41.0557 40.4995C41.0523 40.2415 40.9443 39.9959 40.7565 39.8194L33.9515 32.9505H53.5434C53.7985 32.9556 54.0452 32.8577 54.2279 32.6789C54.4101 32.5001 54.5131 32.2552 54.5131 32L54.4952 32Z" fill="#3B3834"/>
</svg>
