<svg width="64" height="120" viewBox="0 0 64 120" fill="none" xmlns="http://www.w3.org/2000/svg">
<path d="M57.6524 113.28H57.647C51.3995 112.929 35.0334 110.399 33.9485 102.999V77.6449C52.0056 76.8959 64 65.7087 64 49.3254C64 36.8111 57.8666 3.02966 57.6057 1.59676C57.4373 0.671122 56.6303 0 55.6893 0H8.31074C7.36971 0 6.56271 0.672931 6.39427 1.59676C6.13342 3.0305 0 36.8118 0 49.3254C0 65.7059 11.9935 76.8937 30.0515 77.6449V102.997C28.9683 110.396 12.603 112.927 6.46429 113.275C4.64926 113.275 3.17116 114.752 3.17116 116.566C3.17116 118.38 4.64837 119.857 6.46429 119.857H57.5364C59.3514 119.857 60.8295 118.38 60.8295 116.566C60.8286 114.754 59.3541 113.278 57.6504 113.278L57.6524 113.28Z" fill="#3B3834"/>
</svg>
