<svg width="64" height="64" viewBox="0 0 64 64" fill="none" xmlns="http://www.w3.org/2000/svg">
<path d="M60 23.5C60 41 34.0525 55.165 32.9475 55.75C32.6563 55.9067 32.3307 55.9887 32 55.9887C31.6693 55.9887 31.3437 55.9067 31.0525 55.75C29.9475 55.165 4 41 4 23.5C4.00463 19.3906 5.63915 15.4508 8.54496 12.545C11.4508 9.63915 15.3906 8.00463 19.5 8C24.6625 8 29.1825 10.22 32 13.9725C34.8175 10.22 39.3375 8 44.5 8C48.6094 8.00463 52.5492 9.63915 55.455 12.545C58.3609 15.4508 59.9954 19.3906 60 23.5Z" fill="white"/>
</svg>
