<svg width="64" height="68" viewBox="0 0 64 68" fill="none" xmlns="http://www.w3.org/2000/svg">
<path d="M56.4646 3.76773C54.4678 3.77045 52.5538 4.56557 51.1428 5.97844C49.7319 7.39132 48.9394 9.30644 48.9394 11.3032V23.5406L30.1212 22.5961V9.41419C30.1212 6.91739 29.1294 4.52286 27.3639 2.75735C25.5984 0.99185 23.2038 0 20.707 0C18.2102 0 15.8157 0.99185 14.0502 2.75735C12.2847 4.52286 11.2928 6.91739 11.2928 9.41419V58.3639C11.2928 60.8607 12.2847 63.2552 14.0502 65.0207C15.8157 66.7862 18.2102 67.7781 20.707 67.7781C23.2038 67.7781 25.5984 66.7862 27.3639 65.0207C29.1294 63.2552 30.1212 60.8607 30.1212 58.3639V43.3032H48.9394V58.3639C49.0113 60.3129 49.8362 62.1582 51.2406 63.5116C52.6449 64.865 54.5193 65.6213 56.4697 65.6213C58.4201 65.6213 60.2945 64.865 61.6988 63.5116C63.1032 62.1582 63.928 60.3129 64 58.3639V11.3032C64 9.30466 63.2061 7.38799 61.7929 5.97482C60.3798 4.56164 58.4631 3.76773 56.4646 3.76773Z" fill="#3B3834"/>
<path d="M4.60957 8.88867C3.20959 9.71833 2.04887 10.8971 1.2409 12.3097C0.43293 13.7223 0.0053609 15.3204 0 16.9477L0 52.7155C0.00612734 54.3413 0.434112 55.9377 1.2421 57.3485C2.05008 58.7593 3.2104 59.9363 4.60957 60.7643C4.05203 59.4023 3.76605 57.9446 3.76773 56.473V13.18C3.76919 11.7087 4.05504 10.2515 4.60957 8.88867Z" fill="#3B3834"/>
<path d="M9.41422 9.41531C9.42157 7.95023 9.71087 6.50026 10.2663 5.14453C8.86877 5.97265 7.709 7.14796 6.89955 8.5564C6.0901 9.96485 5.65845 11.5586 5.64648 13.183V56.476C5.65438 58.3942 6.2487 60.2641 7.34972 61.8349C8.45073 63.4057 10.0058 64.6022 11.8063 65.264C10.2669 63.2927 9.42559 60.8661 9.41422 58.365V9.41531Z" fill="#3B3834"/>
</svg>
