<svg width="48" height="48" viewBox="0 0 48 48" fill="none" xmlns="http://www.w3.org/2000/svg">
<path d="M43.332 24.554C43.4657 24.116 43.5798 23.6722 43.674 23.224C43.68 23.19 43.682 23.158 43.69 23.124C43.73 22.928 43.748 22.726 43.78 22.528C43.83 22.214 43.89 21.902 43.92 21.586C44.158 19.2287 43.8682 16.848 43.0715 14.6167C42.2748 12.3854 40.9912 10.3595 39.314 8.68601C37.8296 7.19843 36.066 6.0187 34.1244 5.21454C32.1828 4.41038 30.1015 3.99764 28 4.00001V20H13.034L11.318 16H4V20H8.682L12.338 28.532C11.0563 29.0602 9.95998 29.9566 9.1878 31.1079C8.41563 32.2593 8.00226 33.6137 8 35C8 38.86 11.14 42 15 42C18.518 42 21.408 39.382 21.898 36H26.102C26.592 39.382 29.482 42 33 42C36.86 42 40 38.86 40 35C40 33.74 39.638 32.574 39.054 31.55C39.138 31.468 39.232 31.396 39.316 31.312C40.036 30.59 40.692 29.794 41.27 28.944C41.846 28.084 42.342 27.172 42.742 26.226C42.774 26.152 42.794 26.074 42.824 26H42.826L42.856 25.916C43.032 25.476 43.192 25.034 43.326 24.58L43.332 24.554V24.554ZM15 38C13.346 38 12 36.654 12 35C12 33.346 13.346 32 15 32C16.654 32 18 33.346 18 35C18 36.654 16.654 38 15 38ZM33 38C31.346 38 30 36.654 30 35C30 33.346 31.346 32 33 32C34.654 32 36 33.346 36 35C36 36.654 34.654 38 33 38Z" fill="black"/>
</svg>
