<svg width="100" height="100" viewBox="0 0 100 100" fill="none" xmlns="http://www.w3.org/2000/svg">
<g clip-path="url(#clip0_483_706)">
<path d="M100 0H0V100H100V0Z" fill="white"/>
<path d="M37.15 8.6499H34.3V11.4999H37.15V8.6499Z" fill="black"/>
<path d="M54.2499 8.6499H51.3999V11.4999H54.2499V8.6499Z" fill="black"/>
<path d="M57.1 8.6499H54.25V11.4999H57.1V8.6499Z" fill="black"/>
<path d="M62.8 8.6499H59.95V11.4999H62.8V8.6499Z" fill="black"/>
<path d="M34.3 11.5H31.45V14.35H34.3V11.5Z" fill="black"/>
<path d="M37.15 11.5H34.3V14.35H37.15V11.5Z" fill="black"/>
<path d="M42.85 11.5H40V14.35H42.85V11.5Z" fill="black"/>
<path d="M45.7001 11.5H42.8501V14.35H45.7001V11.5Z" fill="black"/>
<path d="M59.9501 11.5H57.1001V14.35H59.9501V11.5Z" fill="black"/>
<path d="M65.65 11.5H62.8V14.35H65.65V11.5Z" fill="black"/>
<path d="M37.15 14.3501H34.3V17.2001H37.15V14.3501Z" fill="black"/>
<path d="M39.9999 14.3501H37.1499V17.2001H39.9999V14.3501Z" fill="black"/>
<path d="M42.85 14.3501H40V17.2001H42.85V14.3501Z" fill="black"/>
<path d="M51.4 14.3501H48.55V17.2001H51.4V14.3501Z" fill="black"/>
<path d="M57.1 14.3501H54.25V17.2001H57.1V14.3501Z" fill="black"/>
<path d="M65.65 14.3501H62.8V17.2001H65.65V14.3501Z" fill="black"/>
<path d="M68.4999 14.3501H65.6499V17.2001H68.4999V14.3501Z" fill="black"/>
<path d="M34.3 17.2H31.45V20.05H34.3V17.2Z" fill="black"/>
<path d="M37.15 17.2H34.3V20.05H37.15V17.2Z" fill="black"/>
<path d="M42.85 17.2H40V20.05H42.85V17.2Z" fill="black"/>
<path d="M57.1 17.2H54.25V20.05H57.1V17.2Z" fill="black"/>
<path d="M68.4999 17.2H65.6499V20.05H68.4999V17.2Z" fill="black"/>
<path d="M39.9999 20.05H37.1499V22.9H39.9999V20.05Z" fill="black"/>
<path d="M45.7001 20.05H42.8501V22.9H45.7001V20.05Z" fill="black"/>
<path d="M48.55 20.05H45.7V22.9H48.55V20.05Z" fill="black"/>
<path d="M51.4 20.05H48.55V22.9H51.4V20.05Z" fill="black"/>
<path d="M54.2499 20.05H51.3999V22.9H54.2499V20.05Z" fill="black"/>
<path d="M65.65 20.05H62.8V22.9H65.65V20.05Z" fill="black"/>
<path d="M34.3 22.8999H31.45V25.7499H34.3V22.8999Z" fill="black"/>
<path d="M39.9999 22.8999H37.1499V25.7499H39.9999V22.8999Z" fill="black"/>
<path d="M48.55 22.8999H45.7V25.7499H48.55V22.8999Z" fill="black"/>
<path d="M51.4 22.8999H48.55V25.7499H51.4V22.8999Z" fill="black"/>
<path d="M54.2499 22.8999H51.3999V25.7499H54.2499V22.8999Z" fill="black"/>
<path d="M57.1 22.8999H54.25V25.7499H57.1V22.8999Z" fill="black"/>
<path d="M59.9501 22.8999H57.1001V25.7499H59.9501V22.8999Z" fill="black"/>
<path d="M68.4999 22.8999H65.6499V25.7499H68.4999V22.8999Z" fill="black"/>
<path d="M34.3 25.75H31.45V28.6H34.3V25.75Z" fill="black"/>
<path d="M39.9999 25.75H37.1499V28.6H39.9999V25.75Z" fill="black"/>
<path d="M45.7001 25.75H42.8501V28.6H45.7001V25.75Z" fill="black"/>
<path d="M51.4 25.75H48.55V28.6H51.4V25.75Z" fill="black"/>
<path d="M57.1 25.75H54.25V28.6H57.1V25.75Z" fill="black"/>
<path d="M62.8 25.75H59.95V28.6H62.8V25.75Z" fill="black"/>
<path d="M68.4999 25.75H65.6499V28.6H68.4999V25.75Z" fill="black"/>
<path d="M45.7001 28.6001H42.8501V31.4501H45.7001V28.6001Z" fill="black"/>
<path d="M48.55 28.6001H45.7V31.4501H48.55V28.6001Z" fill="black"/>
<path d="M54.2499 28.6001H51.3999V31.4501H54.2499V28.6001Z" fill="black"/>
<path d="M62.8 28.6001H59.95V31.4501H62.8V28.6001Z" fill="black"/>
<path d="M65.65 28.6001H62.8V31.4501H65.65V28.6001Z" fill="black"/>
<path d="M68.4999 28.6001H65.6499V31.4501H68.4999V28.6001Z" fill="black"/>
<path d="M11.4999 31.45H8.6499V34.3H11.4999V31.45Z" fill="black"/>
<path d="M14.35 31.45H11.5V34.3H14.35V31.45Z" fill="black"/>
<path d="M17.2001 31.45H14.3501V34.3H17.2001V31.45Z" fill="black"/>
<path d="M20.05 31.45H17.2V34.3H20.05V31.45Z" fill="black"/>
<path d="M22.9 31.45H20.05V34.3H22.9V31.45Z" fill="black"/>
<path d="M28.6 31.45H25.75V34.3H28.6V31.45Z" fill="black"/>
<path d="M31.4501 31.45H28.6001V34.3H31.4501V31.45Z" fill="black"/>
<path d="M34.3 31.45H31.45V34.3H34.3V31.45Z" fill="black"/>
<path d="M37.15 31.45H34.3V34.3H37.15V31.45Z" fill="black"/>
<path d="M39.9999 31.45H37.1499V34.3H39.9999V31.45Z" fill="black"/>
<path d="M45.7001 31.45H42.8501V34.3H45.7001V31.45Z" fill="black"/>
<path d="M51.4 31.45H48.55V34.3H51.4V31.45Z" fill="black"/>
<path d="M54.2499 31.45H51.3999V34.3H54.2499V31.45Z" fill="black"/>
<path d="M62.8 31.45H59.95V34.3H62.8V31.45Z" fill="black"/>
<path d="M68.4999 31.45H65.6499V34.3H68.4999V31.45Z" fill="black"/>
<path d="M71.35 31.45H68.5V34.3H71.35V31.45Z" fill="black"/>
<path d="M77.0502 31.45H74.2002V34.3H77.0502V31.45Z" fill="black"/>
<path d="M82.7499 31.45H79.8999V34.3H82.7499V31.45Z" fill="black"/>
<path d="M88.4501 31.45H85.6001V34.3H88.4501V31.45Z" fill="black"/>
<path d="M11.4999 34.3H8.6499V37.15H11.4999V34.3Z" fill="black"/>
<path d="M14.35 34.3H11.5V37.15H14.35V34.3Z" fill="black"/>
<path d="M20.05 34.3H17.2V37.15H20.05V34.3Z" fill="black"/>
<path d="M25.7499 34.3H22.8999V37.15H25.7499V34.3Z" fill="black"/>
<path d="M31.4501 34.3H28.6001V37.15H31.4501V34.3Z" fill="black"/>
<path d="M37.15 34.3H34.3V37.15H37.15V34.3Z" fill="black"/>
<path d="M54.2499 34.3H51.3999V37.15H54.2499V34.3Z" fill="black"/>
<path d="M57.1 34.3H54.25V37.15H57.1V34.3Z" fill="black"/>
<path d="M65.65 34.3H62.8V37.15H65.65V34.3Z" fill="black"/>
<path d="M68.4999 34.3H65.6499V37.15H68.4999V34.3Z" fill="black"/>
<path d="M71.35 34.3H68.5V37.15H71.35V34.3Z" fill="black"/>
<path d="M74.2001 34.3H71.3501V37.15H74.2001V34.3Z" fill="black"/>
<path d="M77.0502 34.3H74.2002V37.15H77.0502V34.3Z" fill="black"/>
<path d="M82.7499 34.3H79.8999V37.15H82.7499V34.3Z" fill="black"/>
<path d="M88.4501 34.3H85.6001V37.15H88.4501V34.3Z" fill="black"/>
<path d="M20.05 37.1499H17.2V39.9999H20.05V37.1499Z" fill="black"/>
<path d="M28.6 37.1499H25.75V39.9999H28.6V37.1499Z" fill="black"/>
<path d="M31.4501 37.1499H28.6001V39.9999H31.4501V37.1499Z" fill="black"/>
<path d="M37.15 37.1499H34.3V39.9999H37.15V37.1499Z" fill="black"/>
<path d="M42.85 37.1499H40V39.9999H42.85V37.1499Z" fill="black"/>
<path d="M45.7001 37.1499H42.8501V39.9999H45.7001V37.1499Z" fill="black"/>
<path d="M59.9501 37.1499H57.1001V39.9999H59.9501V37.1499Z" fill="black"/>
<path d="M65.65 37.1499H62.8V39.9999H65.65V37.1499Z" fill="black"/>
<path d="M82.7499 37.1499H79.8999V39.9999H82.7499V37.1499Z" fill="black"/>
<path d="M85.6 37.1499H82.75V39.9999H85.6V37.1499Z" fill="black"/>
<path d="M25.7499 40H22.8999V42.85H25.7499V40Z" fill="black"/>
<path d="M31.4501 40H28.6001V42.85H31.4501V40Z" fill="black"/>
<path d="M34.3 40H31.45V42.85H34.3V40Z" fill="black"/>
<path d="M37.15 40H34.3V42.85H37.15V40Z" fill="black"/>
<path d="M39.9999 40H37.1499V42.85H39.9999V40Z" fill="black"/>
<path d="M42.85 40H40V42.85H42.85V40Z" fill="black"/>
<path d="M51.4 40H48.55V42.85H51.4V40Z" fill="black"/>
<path d="M57.1 40H54.25V42.85H57.1V40Z" fill="black"/>
<path d="M62.8 40H59.95V42.85H62.8V40Z" fill="black"/>
<path d="M65.65 40H62.8V42.85H65.65V40Z" fill="black"/>
<path d="M68.4999 40H65.6499V42.85H68.4999V40Z" fill="black"/>
<path d="M74.2001 40H71.3501V42.85H74.2001V40Z" fill="black"/>
<path d="M77.0502 40H74.2002V42.85H77.0502V40Z" fill="black"/>
<path d="M79.8998 40H77.0498V42.85H79.8998V40Z" fill="black"/>
<path d="M82.7499 40H79.8999V42.85H82.7499V40Z" fill="black"/>
<path d="M91.3002 40H88.4502V42.85H91.3002V40Z" fill="black"/>
<path d="M11.4999 42.8501H8.6499V45.7001H11.4999V42.8501Z" fill="black"/>
<path d="M14.35 42.8501H11.5V45.7001H14.35V42.8501Z" fill="black"/>
<path d="M17.2001 42.8501H14.3501V45.7001H17.2001V42.8501Z" fill="black"/>
<path d="M20.05 42.8501H17.2V45.7001H20.05V42.8501Z" fill="black"/>
<path d="M28.6 42.8501H25.75V45.7001H28.6V42.8501Z" fill="black"/>
<path d="M37.15 42.8501H34.3V45.7001H37.15V42.8501Z" fill="black"/>
<path d="M42.85 42.8501H40V45.7001H42.85V42.8501Z" fill="black"/>
<path d="M59.9501 42.8501H57.1001V45.7001H59.9501V42.8501Z" fill="black"/>
<path d="M71.35 42.8501H68.5V45.7001H71.35V42.8501Z" fill="black"/>
<path d="M74.2001 42.8501H71.3501V45.7001H74.2001V42.8501Z" fill="black"/>
<path d="M77.0502 42.8501H74.2002V45.7001H77.0502V42.8501Z" fill="black"/>
<path d="M14.35 45.7H11.5V48.55H14.35V45.7Z" fill="black"/>
<path d="M17.2001 45.7H14.3501V48.55H17.2001V45.7Z" fill="black"/>
<path d="M25.7499 45.7H22.8999V48.55H25.7499V45.7Z" fill="black"/>
<path d="M31.4501 45.7H28.6001V48.55H31.4501V45.7Z" fill="black"/>
<path d="M34.3 45.7H31.45V48.55H34.3V45.7Z" fill="black"/>
<path d="M39.9999 45.7H37.1499V48.55H39.9999V45.7Z" fill="black"/>
<path d="M45.7001 45.7H42.8501V48.55H45.7001V45.7Z" fill="black"/>
<path d="M48.55 45.7H45.7V48.55H48.55V45.7Z" fill="black"/>
<path d="M51.4 45.7H48.55V48.55H51.4V45.7Z" fill="black"/>
<path d="M54.2499 45.7H51.3999V48.55H54.2499V45.7Z" fill="black"/>
<path d="M65.65 45.7H62.8V48.55H65.65V45.7Z" fill="black"/>
<path d="M71.35 45.7H68.5V48.55H71.35V45.7Z" fill="black"/>
<path d="M74.2001 45.7H71.3501V48.55H74.2001V45.7Z" fill="black"/>
<path d="M77.0502 45.7H74.2002V48.55H77.0502V45.7Z" fill="black"/>
<path d="M82.7499 45.7H79.8999V48.55H82.7499V45.7Z" fill="black"/>
<path d="M88.4501 45.7H85.6001V48.55H88.4501V45.7Z" fill="black"/>
<path d="M11.4999 48.55H8.6499V51.4H11.4999V48.55Z" fill="black"/>
<path d="M17.2001 48.55H14.3501V51.4H17.2001V48.55Z" fill="black"/>
<path d="M22.9 48.55H20.05V51.4H22.9V48.55Z" fill="black"/>
<path d="M28.6 48.55H25.75V51.4H28.6V48.55Z" fill="black"/>
<path d="M34.3 48.55H31.45V51.4H34.3V48.55Z" fill="black"/>
<path d="M37.15 48.55H34.3V51.4H37.15V48.55Z" fill="black"/>
<path d="M48.55 48.55H45.7V51.4H48.55V48.55Z" fill="black"/>
<path d="M51.4 48.55H48.55V51.4H51.4V48.55Z" fill="black"/>
<path d="M54.2499 48.55H51.3999V51.4H54.2499V48.55Z" fill="black"/>
<path d="M59.9501 48.55H57.1001V51.4H59.9501V48.55Z" fill="black"/>
<path d="M65.65 48.55H62.8V51.4H65.65V48.55Z" fill="black"/>
<path d="M82.7499 48.55H79.8999V51.4H82.7499V48.55Z" fill="black"/>
<path d="M85.6 48.55H82.75V51.4H85.6V48.55Z" fill="black"/>
<path d="M88.4501 48.55H85.6001V51.4H88.4501V48.55Z" fill="black"/>
<path d="M91.3002 48.55H88.4502V51.4H91.3002V48.55Z" fill="black"/>
<path d="M17.2001 51.3999H14.3501V54.2499H17.2001V51.3999Z" fill="black"/>
<path d="M20.05 51.3999H17.2V54.2499H20.05V51.3999Z" fill="black"/>
<path d="M22.9 51.3999H20.05V54.2499H22.9V51.3999Z" fill="black"/>
<path d="M31.4501 51.3999H28.6001V54.2499H31.4501V51.3999Z" fill="black"/>
<path d="M34.3 51.3999H31.45V54.2499H34.3V51.3999Z" fill="black"/>
<path d="M37.15 51.3999H34.3V54.2499H37.15V51.3999Z" fill="black"/>
<path d="M45.7001 51.3999H42.8501V54.2499H45.7001V51.3999Z" fill="black"/>
<path d="M48.55 51.3999H45.7V54.2499H48.55V51.3999Z" fill="black"/>
<path d="M54.2499 51.3999H51.3999V54.2499H54.2499V51.3999Z" fill="black"/>
<path d="M62.8 51.3999H59.95V54.2499H62.8V51.3999Z" fill="black"/>
<path d="M65.65 51.3999H62.8V54.2499H65.65V51.3999Z" fill="black"/>
<path d="M68.4999 51.3999H65.6499V54.2499H68.4999V51.3999Z" fill="black"/>
<path d="M71.35 51.3999H68.5V54.2499H71.35V51.3999Z" fill="black"/>
<path d="M74.2001 51.3999H71.3501V54.2499H74.2001V51.3999Z" fill="black"/>
<path d="M77.0502 51.3999H74.2002V54.2499H77.0502V51.3999Z" fill="black"/>
<path d="M79.8998 51.3999H77.0498V54.2499H79.8998V51.3999Z" fill="black"/>
<path d="M88.4501 51.3999H85.6001V54.2499H88.4501V51.3999Z" fill="black"/>
<path d="M91.3002 51.3999H88.4502V54.2499H91.3002V51.3999Z" fill="black"/>
<path d="M14.35 54.25H11.5V57.1H14.35V54.25Z" fill="black"/>
<path d="M17.2001 54.25H14.3501V57.1H17.2001V54.25Z" fill="black"/>
<path d="M20.05 54.25H17.2V57.1H20.05V54.25Z" fill="black"/>
<path d="M25.7499 54.25H22.8999V57.1H25.7499V54.25Z" fill="black"/>
<path d="M28.6 54.25H25.75V57.1H28.6V54.25Z" fill="black"/>
<path d="M31.4501 54.25H28.6001V57.1H31.4501V54.25Z" fill="black"/>
<path d="M34.3 54.25H31.45V57.1H34.3V54.25Z" fill="black"/>
<path d="M37.15 54.25H34.3V57.1H37.15V54.25Z" fill="black"/>
<path d="M39.9999 54.25H37.1499V57.1H39.9999V54.25Z" fill="black"/>
<path d="M45.7001 54.25H42.8501V57.1H45.7001V54.25Z" fill="black"/>
<path d="M51.4 54.25H48.55V57.1H51.4V54.25Z" fill="black"/>
<path d="M54.2499 54.25H51.3999V57.1H54.2499V54.25Z" fill="black"/>
<path d="M57.1 54.25H54.25V57.1H57.1V54.25Z" fill="black"/>
<path d="M62.8 54.25H59.95V57.1H62.8V54.25Z" fill="black"/>
<path d="M68.4999 54.25H65.6499V57.1H68.4999V54.25Z" fill="black"/>
<path d="M74.2001 54.25H71.3501V57.1H74.2001V54.25Z" fill="black"/>
<path d="M77.0502 54.25H74.2002V57.1H77.0502V54.25Z" fill="black"/>
<path d="M79.8998 54.25H77.0498V57.1H79.8998V54.25Z" fill="black"/>
<path d="M11.4999 57.1001H8.6499V59.9501H11.4999V57.1001Z" fill="black"/>
<path d="M20.05 57.1001H17.2V59.9501H20.05V57.1001Z" fill="black"/>
<path d="M25.7499 57.1001H22.8999V59.9501H25.7499V57.1001Z" fill="black"/>
<path d="M34.3 57.1001H31.45V59.9501H34.3V57.1001Z" fill="black"/>
<path d="M39.9999 57.1001H37.1499V59.9501H39.9999V57.1001Z" fill="black"/>
<path d="M57.1 57.1001H54.25V59.9501H57.1V57.1001Z" fill="black"/>
<path d="M65.65 57.1001H62.8V59.9501H65.65V57.1001Z" fill="black"/>
<path d="M68.4999 57.1001H65.6499V59.9501H68.4999V57.1001Z" fill="black"/>
<path d="M74.2001 57.1001H71.3501V59.9501H74.2001V57.1001Z" fill="black"/>
<path d="M77.0502 57.1001H74.2002V59.9501H77.0502V57.1001Z" fill="black"/>
<path d="M82.7499 57.1001H79.8999V59.9501H82.7499V57.1001Z" fill="black"/>
<path d="M91.3002 57.1001H88.4502V59.9501H91.3002V57.1001Z" fill="black"/>
<path d="M11.4999 59.95H8.6499V62.8H11.4999V59.95Z" fill="black"/>
<path d="M17.2001 59.95H14.3501V62.8H17.2001V59.95Z" fill="black"/>
<path d="M22.9 59.95H20.05V62.8H22.9V59.95Z" fill="black"/>
<path d="M25.7499 59.95H22.8999V62.8H25.7499V59.95Z" fill="black"/>
<path d="M28.6 59.95H25.75V62.8H28.6V59.95Z" fill="black"/>
<path d="M31.4501 59.95H28.6001V62.8H31.4501V59.95Z" fill="black"/>
<path d="M39.9999 59.95H37.1499V62.8H39.9999V59.95Z" fill="black"/>
<path d="M42.85 59.95H40V62.8H42.85V59.95Z" fill="black"/>
<path d="M45.7001 59.95H42.8501V62.8H45.7001V59.95Z" fill="black"/>
<path d="M59.9501 59.95H57.1001V62.8H59.9501V59.95Z" fill="black"/>
<path d="M65.65 59.95H62.8V62.8H65.65V59.95Z" fill="black"/>
<path d="M71.35 59.95H68.5V62.8H71.35V59.95Z" fill="black"/>
<path d="M82.7499 59.95H79.8999V62.8H82.7499V59.95Z" fill="black"/>
<path d="M85.6 59.95H82.75V62.8H85.6V59.95Z" fill="black"/>
<path d="M91.3002 59.95H88.4502V62.8H91.3002V59.95Z" fill="black"/>
<path d="M11.4999 62.8H8.6499V65.65H11.4999V62.8Z" fill="black"/>
<path d="M22.9 62.8H20.05V65.65H22.9V62.8Z" fill="black"/>
<path d="M39.9999 62.8H37.1499V65.65H39.9999V62.8Z" fill="black"/>
<path d="M42.85 62.8H40V65.65H42.85V62.8Z" fill="black"/>
<path d="M51.4 62.8H48.55V65.65H51.4V62.8Z" fill="black"/>
<path d="M57.1 62.8H54.25V65.65H57.1V62.8Z" fill="black"/>
<path d="M59.9501 62.8H57.1001V65.65H59.9501V62.8Z" fill="black"/>
<path d="M62.8 62.8H59.95V65.65H62.8V62.8Z" fill="black"/>
<path d="M65.65 62.8H62.8V65.65H65.65V62.8Z" fill="black"/>
<path d="M71.35 62.8H68.5V65.65H71.35V62.8Z" fill="black"/>
<path d="M74.2001 62.8H71.3501V65.65H74.2001V62.8Z" fill="black"/>
<path d="M77.0502 62.8H74.2002V65.65H77.0502V62.8Z" fill="black"/>
<path d="M79.8998 62.8H77.0498V65.65H79.8998V62.8Z" fill="black"/>
<path d="M11.4999 65.6499H8.6499V68.4999H11.4999V65.6499Z" fill="black"/>
<path d="M20.05 65.6499H17.2V68.4999H20.05V65.6499Z" fill="black"/>
<path d="M28.6 65.6499H25.75V68.4999H28.6V65.6499Z" fill="black"/>
<path d="M37.15 65.6499H34.3V68.4999H37.15V65.6499Z" fill="black"/>
<path d="M42.85 65.6499H40V68.4999H42.85V65.6499Z" fill="black"/>
<path d="M54.2499 65.6499H51.3999V68.4999H54.2499V65.6499Z" fill="black"/>
<path d="M68.4999 65.6499H65.6499V68.4999H68.4999V65.6499Z" fill="black"/>
<path d="M71.35 65.6499H68.5V68.4999H71.35V65.6499Z" fill="black"/>
<path d="M74.2001 65.6499H71.3501V68.4999H74.2001V65.6499Z" fill="black"/>
<path d="M77.0502 65.6499H74.2002V68.4999H77.0502V65.6499Z" fill="black"/>
<path d="M79.8998 65.6499H77.0498V68.4999H79.8998V65.6499Z" fill="black"/>
<path d="M82.7499 65.6499H79.8999V68.4999H82.7499V65.6499Z" fill="black"/>
<path d="M85.6 65.6499H82.75V68.4999H85.6V65.6499Z" fill="black"/>
<path d="M88.4501 65.6499H85.6001V68.4999H88.4501V65.6499Z" fill="black"/>
<path d="M34.3 68.5H31.45V71.35H34.3V68.5Z" fill="black"/>
<path d="M45.7001 68.5H42.8501V71.35H45.7001V68.5Z" fill="black"/>
<path d="M48.55 68.5H45.7V71.35H48.55V68.5Z" fill="black"/>
<path d="M51.4 68.5H48.55V71.35H51.4V68.5Z" fill="black"/>
<path d="M54.2499 68.5H51.3999V71.35H54.2499V68.5Z" fill="black"/>
<path d="M57.1 68.5H54.25V71.35H57.1V68.5Z" fill="black"/>
<path d="M62.8 68.5H59.95V71.35H62.8V68.5Z" fill="black"/>
<path d="M65.65 68.5H62.8V71.35H65.65V68.5Z" fill="black"/>
<path d="M68.4999 68.5H65.6499V71.35H68.4999V68.5Z" fill="black"/>
<path d="M79.8998 68.5H77.0498V71.35H79.8998V68.5Z" fill="black"/>
<path d="M88.4501 68.5H85.6001V71.35H88.4501V68.5Z" fill="black"/>
<path d="M34.3 71.3501H31.45V74.2001H34.3V71.3501Z" fill="black"/>
<path d="M37.15 71.3501H34.3V74.2001H37.15V71.3501Z" fill="black"/>
<path d="M48.55 71.3501H45.7V74.2001H48.55V71.3501Z" fill="black"/>
<path d="M51.4 71.3501H48.55V74.2001H51.4V71.3501Z" fill="black"/>
<path d="M54.2499 71.3501H51.3999V74.2001H54.2499V71.3501Z" fill="black"/>
<path d="M57.1 71.3501H54.25V74.2001H57.1V71.3501Z" fill="black"/>
<path d="M59.9501 71.3501H57.1001V74.2001H59.9501V71.3501Z" fill="black"/>
<path d="M68.4999 71.3501H65.6499V74.2001H68.4999V71.3501Z" fill="black"/>
<path d="M74.2001 71.3501H71.3501V74.2001H74.2001V71.3501Z" fill="black"/>
<path d="M79.8998 71.3501H77.0498V74.2001H79.8998V71.3501Z" fill="black"/>
<path d="M82.7499 71.3501H79.8999V74.2001H82.7499V71.3501Z" fill="black"/>
<path d="M85.6 71.3501H82.75V74.2001H85.6V71.3501Z" fill="black"/>
<path d="M37.15 74.2H34.3V77.05H37.15V74.2Z" fill="black"/>
<path d="M39.9999 74.2H37.1499V77.05H39.9999V74.2Z" fill="black"/>
<path d="M45.7001 74.2H42.8501V77.05H45.7001V74.2Z" fill="black"/>
<path d="M48.55 74.2H45.7V77.05H48.55V74.2Z" fill="black"/>
<path d="M57.1 74.2H54.25V77.05H57.1V74.2Z" fill="black"/>
<path d="M59.9501 74.2H57.1001V77.05H59.9501V74.2Z" fill="black"/>
<path d="M62.8 74.2H59.95V77.05H62.8V74.2Z" fill="black"/>
<path d="M65.65 74.2H62.8V77.05H65.65V74.2Z" fill="black"/>
<path d="M68.4999 74.2H65.6499V77.05H68.4999V74.2Z" fill="black"/>
<path d="M79.8998 74.2H77.0498V77.05H79.8998V74.2Z" fill="black"/>
<path d="M85.6 74.2H82.75V77.05H85.6V74.2Z" fill="black"/>
<path d="M88.4501 74.2H85.6001V77.05H88.4501V74.2Z" fill="black"/>
<path d="M91.3002 74.2H88.4502V77.05H91.3002V74.2Z" fill="black"/>
<path d="M34.3 77.05H31.45V79.9H34.3V77.05Z" fill="black"/>
<path d="M37.15 77.05H34.3V79.9H37.15V77.05Z" fill="black"/>
<path d="M45.7001 77.05H42.8501V79.9H45.7001V77.05Z" fill="black"/>
<path d="M51.4 77.05H48.55V79.9H51.4V77.05Z" fill="black"/>
<path d="M54.2499 77.05H51.3999V79.9H54.2499V77.05Z" fill="black"/>
<path d="M57.1 77.05H54.25V79.9H57.1V77.05Z" fill="black"/>
<path d="M62.8 77.05H59.95V79.9H62.8V77.05Z" fill="black"/>
<path d="M68.4999 77.05H65.6499V79.9H68.4999V77.05Z" fill="black"/>
<path d="M71.35 77.05H68.5V79.9H71.35V77.05Z" fill="black"/>
<path d="M74.2001 77.05H71.3501V79.9H74.2001V77.05Z" fill="black"/>
<path d="M77.0502 77.05H74.2002V79.9H77.0502V77.05Z" fill="black"/>
<path d="M79.8998 77.05H77.0498V79.9H79.8998V77.05Z" fill="black"/>
<path d="M85.6 77.05H82.75V79.9H85.6V77.05Z" fill="black"/>
<path d="M88.4501 77.05H85.6001V79.9H88.4501V77.05Z" fill="black"/>
<path d="M91.3002 77.05H88.4502V79.9H91.3002V77.05Z" fill="black"/>
<path d="M34.3 79.8999H31.45V82.7499H34.3V79.8999Z" fill="black"/>
<path d="M37.15 79.8999H34.3V82.7499H37.15V79.8999Z" fill="black"/>
<path d="M39.9999 79.8999H37.1499V82.7499H39.9999V79.8999Z" fill="black"/>
<path d="M54.2499 79.8999H51.3999V82.7499H54.2499V79.8999Z" fill="black"/>
<path d="M68.4999 79.8999H65.6499V82.7499H68.4999V79.8999Z" fill="black"/>
<path d="M74.2001 79.8999H71.3501V82.7499H74.2001V79.8999Z" fill="black"/>
<path d="M77.0502 79.8999H74.2002V82.7499H77.0502V79.8999Z" fill="black"/>
<path d="M34.3 82.75H31.45V85.6H34.3V82.75Z" fill="black"/>
<path d="M37.15 82.75H34.3V85.6H37.15V82.75Z" fill="black"/>
<path d="M39.9999 82.75H37.1499V85.6H39.9999V82.75Z" fill="black"/>
<path d="M42.85 82.75H40V85.6H42.85V82.75Z" fill="black"/>
<path d="M45.7001 82.75H42.8501V85.6H45.7001V82.75Z" fill="black"/>
<path d="M54.2499 82.75H51.3999V85.6H54.2499V82.75Z" fill="black"/>
<path d="M59.9501 82.75H57.1001V85.6H59.9501V82.75Z" fill="black"/>
<path d="M65.65 82.75H62.8V85.6H65.65V82.75Z" fill="black"/>
<path d="M71.35 82.75H68.5V85.6H71.35V82.75Z" fill="black"/>
<path d="M74.2001 82.75H71.3501V85.6H74.2001V82.75Z" fill="black"/>
<path d="M77.0502 82.75H74.2002V85.6H77.0502V82.75Z" fill="black"/>
<path d="M85.6 82.75H82.75V85.6H85.6V82.75Z" fill="black"/>
<path d="M88.4501 82.75H85.6001V85.6H88.4501V82.75Z" fill="black"/>
<path d="M34.3 85.6001H31.45V88.4501H34.3V85.6001Z" fill="black"/>
<path d="M39.9999 85.6001H37.1499V88.4501H39.9999V85.6001Z" fill="black"/>
<path d="M42.85 85.6001H40V88.4501H42.85V85.6001Z" fill="black"/>
<path d="M51.4 85.6001H48.55V88.4501H51.4V85.6001Z" fill="black"/>
<path d="M57.1 85.6001H54.25V88.4501H57.1V85.6001Z" fill="black"/>
<path d="M59.9501 85.6001H57.1001V88.4501H59.9501V85.6001Z" fill="black"/>
<path d="M62.8 85.6001H59.95V88.4501H62.8V85.6001Z" fill="black"/>
<path d="M65.65 85.6001H62.8V88.4501H65.65V85.6001Z" fill="black"/>
<path d="M82.7499 85.6001H79.8999V88.4501H82.7499V85.6001Z" fill="black"/>
<path d="M85.6 85.6001H82.75V88.4501H85.6V85.6001Z" fill="black"/>
<path d="M91.3002 85.6001H88.4502V88.4501H91.3002V85.6001Z" fill="black"/>
<path d="M34.3 88.45H31.45V91.3H34.3V88.45Z" fill="black"/>
<path d="M42.85 88.45H40V91.3H42.85V88.45Z" fill="black"/>
<path d="M54.2499 88.45H51.3999V91.3H54.2499V88.45Z" fill="black"/>
<path d="M59.9501 88.45H57.1001V91.3H59.9501V88.45Z" fill="black"/>
<path d="M65.65 88.45H62.8V91.3H65.65V88.45Z" fill="black"/>
<path d="M68.4999 88.45H65.6499V91.3H68.4999V88.45Z" fill="black"/>
<path d="M71.35 88.45H68.5V91.3H71.35V88.45Z" fill="black"/>
<path d="M74.2001 88.45H71.3501V91.3H74.2001V88.45Z" fill="black"/>
<path d="M79.8998 88.45H77.0498V91.3H79.8998V88.45Z" fill="black"/>
<path d="M82.7499 88.45H79.8999V91.3H82.7499V88.45Z" fill="black"/>
<path d="M85.6 88.45H82.75V91.3H85.6V88.45Z" fill="black"/>
<g clip-path="url(#clip1_483_706)">
<path d="M25.7785 8.6499H22.9284H20.0785H20.0784H17.2285H14.3785H11.5285H8.67847V11.4999V14.3499V17.1999V20.0499V22.8999V25.7499V28.5998H11.5285H14.3785H17.2285H20.0784H20.0785H22.9284H25.7785H28.6285V25.7499V22.8999V20.0499V17.1999V14.3499V11.4999V8.6499H25.7785ZM25.7785 14.3499V17.1999V20.0499V22.8999V25.7499H22.9284H20.0785H20.0784H17.2285H14.3785H11.5285V22.8999V20.0499V17.1999V14.3499V11.4999H14.3785H17.2285H20.0784H20.0785H22.9284H25.7785V14.3499Z" fill="black"/>
</g>
<path d="M20.0498 14.3499H20.0498H17.1998H14.3499V17.1998V20.0499V22.8998H17.1998H20.0498H20.0498H22.8998V20.0499V17.1998V14.3499H20.0498Z" fill="black"/>
<g clip-path="url(#clip2_483_706)">
<path d="M88.4784 8.6499H85.6284H82.7784H82.7784H79.9284H77.0784H74.2284H71.3784V11.4999V14.3499V17.1999V20.0499V22.8999V25.7499V28.5998H74.2284H77.0784H79.9284H82.7784H82.7784H85.6284H88.4784H91.3284V25.7499V22.8999V20.0499V17.1999V14.3499V11.4999V8.6499H88.4784ZM88.4784 14.3499V17.1999V20.0499V22.8999V25.7499H85.6284H82.7784H82.7784H79.9284H77.0784H74.2284V22.8999V20.0499V17.1999V14.3499V11.4999H77.0784H79.9284H82.7784H82.7784H85.6284H88.4784V14.3499Z" fill="black"/>
</g>
<path d="M82.7503 14.3499H82.7502H79.9003H77.0503V17.1998V20.0499V22.8998H79.9003H82.7502H82.7503H85.6002V20.0499V17.1998V14.3499H82.7503Z" fill="black"/>
<g clip-path="url(#clip3_483_706)">
<path d="M25.7785 71.3501H22.9284H20.0785H20.0784H17.2285H14.3785H11.5285H8.67847V74.2001V77.0501V79.9001V82.7501V85.6001V88.45V91.3H11.5285H14.3785H17.2285H20.0784H20.0785H22.9284H25.7785H28.6285V88.45V85.6001V82.7501V79.9001V77.0501V74.2001V71.3501H25.7785ZM25.7785 77.0501V79.9001V82.7501V85.6001V88.45H22.9284H20.0785H20.0784H17.2285H14.3785H11.5285V85.6001V82.7501V79.9001V77.0501V74.2001H14.3785H17.2285H20.0784H20.0785H22.9284H25.7785V77.0501Z" fill="black"/>
</g>
<path d="M20.0498 77.05H20.0498H17.1998H14.3499V79.9V82.7501V85.6H17.1998H20.0498H20.0498H22.8998V82.7501V79.9V77.05H20.0498Z" fill="black"/>
<rect x="42" y="42" width="16" height="16" rx="2.24" fill="white"/>
<g clip-path="url(#clip4_483_706)">
<path d="M46.2771 44.8037C46.2278 44.8087 46.1818 44.8307 46.147 44.8661L44.2414 46.7717L44.241 46.7722C46.1053 48.6355 48.1256 50.6563 49.88 52.4112V48.2976L46.449 44.8666C46.4268 44.8439 46.3999 44.8266 46.3701 44.8157C46.3404 44.8048 46.3086 44.8007 46.2771 44.8037ZM53.709 44.8037C53.6798 44.8027 53.6507 44.8077 53.6235 44.8184C53.5963 44.8292 53.5717 44.8454 53.551 44.8661L50.12 48.299V52.4117L55.76 46.7722C55.1283 46.1376 54.4894 45.5011 53.8544 44.8666C53.8161 44.8279 53.7643 44.8054 53.7099 44.8037H53.709ZM44.24 47.1101L44.241 52.3685C44.241 52.5096 44.2976 52.6454 44.3974 52.7453L46.7845 55.1338C46.9189 55.2691 47.1493 55.1736 47.1483 54.983V50.0179L44.24 47.1101ZM55.759 47.1115L52.8502 50.0208V54.983C52.8483 55.1746 53.0806 55.271 53.215 55.1338L55.6026 52.7453C55.6521 52.6958 55.6914 52.6371 55.7183 52.5724C55.7451 52.5078 55.759 52.4385 55.759 52.3685V47.1115Z" fill="#FF4F40"/>
</g>
</g>
<defs>
<clipPath id="clip0_483_706">
<rect width="100" height="100" fill="white"/>
</clipPath>
<clipPath id="clip1_483_706">
<rect width="19.95" height="19.95" fill="white" transform="translate(8.6499 8.6499)"/>
</clipPath>
<clipPath id="clip2_483_706">
<rect width="19.95" height="19.95" fill="white" transform="translate(71.3501 8.6499)"/>
</clipPath>
<clipPath id="clip3_483_706">
<rect width="19.95" height="19.95" fill="white" transform="translate(8.6499 71.3501)"/>
</clipPath>
<clipPath id="clip4_483_706">
<rect width="11.52" height="11.52" fill="white" transform="translate(44.24 44.24)"/>
</clipPath>
</defs>
</svg>
