<svg width="64" height="64" viewBox="0 0 64 64" fill="none" xmlns="http://www.w3.org/2000/svg">
<path d="M20.6251 10.6625V51.325C19.4126 50.9125 18.0626 50.6625 16.6251 50.6625C11.4751 50.6625 7.2876 53.65 7.2876 57.325C7.2876 61.0125 11.4626 63.9875 16.6251 63.9875C21.7751 63.9875 25.9626 61 25.9626 57.325C25.9626 56.875 25.9001 56.425 25.7751 55.9875H25.9626V22.475L52.6251 14.8625V43.3375C51.4126 42.925 50.0626 42.675 48.6251 42.675C43.4751 42.675 39.2876 45.6625 39.2876 49.3375C39.2876 53.025 43.4626 56 48.6251 56C53.7751 56 57.9626 53.0125 57.9626 49.3375C57.9626 48.9125 57.9001 48.5 57.7876 48.0875L57.9626 48V0L20.6251 10.6625Z" fill="#3B3834"/>
</svg>
