<svg width="100" height="100" viewBox="0 0 100 100" fill="none" xmlns="http://www.w3.org/2000/svg">
<g clip-path="url(#clip0_482_228)">
<path d="M100 0H0V100H100V0Z" fill="white"/>
<path d="M35.9499 7.8999H33.3999V10.4499H35.9499V7.8999Z" fill="black"/>
<path d="M41.05 7.8999H38.5V10.4499H41.05V7.8999Z" fill="black"/>
<path d="M51.25 7.8999H48.7V10.4499H51.25V7.8999Z" fill="black"/>
<path d="M56.35 7.8999H53.8V10.4499H56.35V7.8999Z" fill="black"/>
<path d="M58.9001 7.8999H56.3501V10.4499H58.9001V7.8999Z" fill="black"/>
<path d="M61.4499 7.8999H58.8999V10.4499H61.4499V7.8999Z" fill="black"/>
<path d="M64 7.8999H61.45V10.4499H64V7.8999Z" fill="black"/>
<path d="M66.55 7.8999H64V10.4499H66.55V7.8999Z" fill="black"/>
<path d="M71.6501 7.8999H69.1001V10.4499H71.6501V7.8999Z" fill="black"/>
<path d="M30.85 10.45H28.3V13H30.85V10.45Z" fill="black"/>
<path d="M35.9499 10.45H33.3999V13H35.9499V10.45Z" fill="black"/>
<path d="M46.1501 10.45H43.6001V13H46.1501V10.45Z" fill="black"/>
<path d="M53.8 10.45H51.25V13H53.8V10.45Z" fill="black"/>
<path d="M58.9001 10.45H56.3501V13H58.9001V10.45Z" fill="black"/>
<path d="M66.55 10.45H64V13H66.55V10.45Z" fill="black"/>
<path d="M71.6501 10.45H69.1001V13H71.6501V10.45Z" fill="black"/>
<path d="M41.05 13H38.5V15.55H41.05V13Z" fill="black"/>
<path d="M43.6 13H41.05V15.55H43.6V13Z" fill="black"/>
<path d="M46.1501 13H43.6001V15.55H46.1501V13Z" fill="black"/>
<path d="M51.25 13H48.7V15.55H51.25V13Z" fill="black"/>
<path d="M53.8 13H51.25V15.55H53.8V13Z" fill="black"/>
<path d="M58.9001 13H56.3501V15.55H58.9001V13Z" fill="black"/>
<path d="M69.1 13H66.55V15.55H69.1V13Z" fill="black"/>
<path d="M30.85 15.55H28.3V18.1H30.85V15.55Z" fill="black"/>
<path d="M33.4001 15.55H30.8501V18.1H33.4001V15.55Z" fill="black"/>
<path d="M35.9499 15.55H33.3999V18.1H35.9499V15.55Z" fill="black"/>
<path d="M41.05 15.55H38.5V18.1H41.05V15.55Z" fill="black"/>
<path d="M43.6 15.55H41.05V18.1H43.6V15.55Z" fill="black"/>
<path d="M46.1501 15.55H43.6001V18.1H46.1501V15.55Z" fill="black"/>
<path d="M48.6999 15.55H46.1499V18.1H48.6999V15.55Z" fill="black"/>
<path d="M51.25 15.55H48.7V18.1H51.25V15.55Z" fill="black"/>
<path d="M56.35 15.55H53.8V18.1H56.35V15.55Z" fill="black"/>
<path d="M61.4499 15.55H58.8999V18.1H61.4499V15.55Z" fill="black"/>
<path d="M64 15.55H61.45V18.1H64V15.55Z" fill="black"/>
<path d="M66.55 15.55H64V18.1H66.55V15.55Z" fill="black"/>
<path d="M33.4001 18.1001H30.8501V20.6501H33.4001V18.1001Z" fill="black"/>
<path d="M46.1501 18.1001H43.6001V20.6501H46.1501V18.1001Z" fill="black"/>
<path d="M48.6999 18.1001H46.1499V20.6501H48.6999V18.1001Z" fill="black"/>
<path d="M51.25 18.1001H48.7V20.6501H51.25V18.1001Z" fill="black"/>
<path d="M56.35 18.1001H53.8V20.6501H56.35V18.1001Z" fill="black"/>
<path d="M64 18.1001H61.45V20.6501H64V18.1001Z" fill="black"/>
<path d="M69.1 18.1001H66.55V20.6501H69.1V18.1001Z" fill="black"/>
<path d="M30.85 20.6499H28.3V23.1999H30.85V20.6499Z" fill="black"/>
<path d="M33.4001 20.6499H30.8501V23.1999H33.4001V20.6499Z" fill="black"/>
<path d="M38.5 20.6499H35.95V23.1999H38.5V20.6499Z" fill="black"/>
<path d="M41.05 20.6499H38.5V23.1999H41.05V20.6499Z" fill="black"/>
<path d="M46.1501 20.6499H43.6001V23.1999H46.1501V20.6499Z" fill="black"/>
<path d="M48.6999 20.6499H46.1499V23.1999H48.6999V20.6499Z" fill="black"/>
<path d="M53.8 20.6499H51.25V23.1999H53.8V20.6499Z" fill="black"/>
<path d="M56.35 20.6499H53.8V23.1999H56.35V20.6499Z" fill="black"/>
<path d="M58.9001 20.6499H56.3501V23.1999H58.9001V20.6499Z" fill="black"/>
<path d="M61.4499 20.6499H58.8999V23.1999H61.4499V20.6499Z" fill="black"/>
<path d="M66.55 20.6499H64V23.1999H66.55V20.6499Z" fill="black"/>
<path d="M71.6501 20.6499H69.1001V23.1999H71.6501V20.6499Z" fill="black"/>
<path d="M30.85 23.2H28.3V25.75H30.85V23.2Z" fill="black"/>
<path d="M35.9499 23.2H33.3999V25.75H35.9499V23.2Z" fill="black"/>
<path d="M41.05 23.2H38.5V25.75H41.05V23.2Z" fill="black"/>
<path d="M46.1501 23.2H43.6001V25.75H46.1501V23.2Z" fill="black"/>
<path d="M51.25 23.2H48.7V25.75H51.25V23.2Z" fill="black"/>
<path d="M56.35 23.2H53.8V25.75H56.35V23.2Z" fill="black"/>
<path d="M61.4499 23.2H58.8999V25.75H61.4499V23.2Z" fill="black"/>
<path d="M66.55 23.2H64V25.75H66.55V23.2Z" fill="black"/>
<path d="M71.6501 23.2H69.1001V25.75H71.6501V23.2Z" fill="black"/>
<path d="M33.4001 25.75H30.8501V28.3H33.4001V25.75Z" fill="black"/>
<path d="M35.9499 25.75H33.3999V28.3H35.9499V25.75Z" fill="black"/>
<path d="M38.5 25.75H35.95V28.3H38.5V25.75Z" fill="black"/>
<path d="M46.1501 25.75H43.6001V28.3H46.1501V25.75Z" fill="black"/>
<path d="M51.25 25.75H48.7V28.3H51.25V25.75Z" fill="black"/>
<path d="M53.8 25.75H51.25V28.3H53.8V25.75Z" fill="black"/>
<path d="M58.9001 25.75H56.3501V28.3H58.9001V25.75Z" fill="black"/>
<path d="M61.4499 25.75H58.8999V28.3H61.4499V25.75Z" fill="black"/>
<path d="M69.1 25.75H66.55V28.3H69.1V25.75Z" fill="black"/>
<path d="M10.4499 28.3H7.8999V30.85H10.4499V28.3Z" fill="black"/>
<path d="M13 28.3H10.45V30.85H13V28.3Z" fill="black"/>
<path d="M15.55 28.3H13V30.85H15.55V28.3Z" fill="black"/>
<path d="M18.1 28.3H15.55V30.85H18.1V28.3Z" fill="black"/>
<path d="M20.6501 28.3H18.1001V30.85H20.6501V28.3Z" fill="black"/>
<path d="M25.75 28.3H23.2V30.85H25.75V28.3Z" fill="black"/>
<path d="M28.3 28.3H25.75V30.85H28.3V28.3Z" fill="black"/>
<path d="M30.85 28.3H28.3V30.85H30.85V28.3Z" fill="black"/>
<path d="M33.4001 28.3H30.8501V30.85H33.4001V28.3Z" fill="black"/>
<path d="M38.5 28.3H35.95V30.85H38.5V28.3Z" fill="black"/>
<path d="M46.1501 28.3H43.6001V30.85H46.1501V28.3Z" fill="black"/>
<path d="M48.6999 28.3H46.1499V30.85H48.6999V28.3Z" fill="black"/>
<path d="M51.25 28.3H48.7V30.85H51.25V28.3Z" fill="black"/>
<path d="M64 28.3H61.45V30.85H64V28.3Z" fill="black"/>
<path d="M74.1999 28.3H71.6499V30.85H74.1999V28.3Z" fill="black"/>
<path d="M79.3 28.3H76.75V30.85H79.3V28.3Z" fill="black"/>
<path d="M84.4001 28.3H81.8501V30.85H84.4001V28.3Z" fill="black"/>
<path d="M89.5 28.3H86.95V30.85H89.5V28.3Z" fill="black"/>
<path d="M10.4499 30.8501H7.8999V33.4001H10.4499V30.8501Z" fill="black"/>
<path d="M15.55 30.8501H13V33.4001H15.55V30.8501Z" fill="black"/>
<path d="M35.9499 30.8501H33.3999V33.4001H35.9499V30.8501Z" fill="black"/>
<path d="M41.05 30.8501H38.5V33.4001H41.05V30.8501Z" fill="black"/>
<path d="M46.1501 30.8501H43.6001V33.4001H46.1501V30.8501Z" fill="black"/>
<path d="M48.6999 30.8501H46.1499V33.4001H48.6999V30.8501Z" fill="black"/>
<path d="M51.25 30.8501H48.7V33.4001H51.25V30.8501Z" fill="black"/>
<path d="M58.9001 30.8501H56.3501V33.4001H58.9001V30.8501Z" fill="black"/>
<path d="M64 30.8501H61.45V33.4001H64V30.8501Z" fill="black"/>
<path d="M66.55 30.8501H64V33.4001H66.55V30.8501Z" fill="black"/>
<path d="M71.6501 30.8501H69.1001V33.4001H71.6501V30.8501Z" fill="black"/>
<path d="M81.85 30.8501H79.3V33.4001H81.85V30.8501Z" fill="black"/>
<path d="M84.4001 30.8501H81.8501V33.4001H84.4001V30.8501Z" fill="black"/>
<path d="M86.9499 30.8501H84.3999V33.4001H86.9499V30.8501Z" fill="black"/>
<path d="M10.4499 33.3999H7.8999V35.9499H10.4499V33.3999Z" fill="black"/>
<path d="M13 33.3999H10.45V35.9499H13V33.3999Z" fill="black"/>
<path d="M20.6501 33.3999H18.1001V35.9499H20.6501V33.3999Z" fill="black"/>
<path d="M23.1999 33.3999H20.6499V35.9499H23.1999V33.3999Z" fill="black"/>
<path d="M25.75 33.3999H23.2V35.9499H25.75V33.3999Z" fill="black"/>
<path d="M28.3 33.3999H25.75V35.9499H28.3V33.3999Z" fill="black"/>
<path d="M35.9499 33.3999H33.3999V35.9499H35.9499V33.3999Z" fill="black"/>
<path d="M46.1501 33.3999H43.6001V35.9499H46.1501V33.3999Z" fill="black"/>
<path d="M51.25 33.3999H48.7V35.9499H51.25V33.3999Z" fill="black"/>
<path d="M61.4499 33.3999H58.8999V35.9499H61.4499V33.3999Z" fill="black"/>
<path d="M66.55 33.3999H64V35.9499H66.55V33.3999Z" fill="black"/>
<path d="M71.6501 33.3999H69.1001V35.9499H71.6501V33.3999Z" fill="black"/>
<path d="M79.3 33.3999H76.75V35.9499H79.3V33.3999Z" fill="black"/>
<path d="M81.85 33.3999H79.3V35.9499H81.85V33.3999Z" fill="black"/>
<path d="M84.4001 33.3999H81.8501V35.9499H84.4001V33.3999Z" fill="black"/>
<path d="M89.5 33.3999H86.95V35.9499H89.5V33.3999Z" fill="black"/>
<path d="M20.6501 35.95H18.1001V38.5H20.6501V35.95Z" fill="black"/>
<path d="M28.3 35.95H25.75V38.5H28.3V35.95Z" fill="black"/>
<path d="M41.05 35.95H38.5V38.5H41.05V35.95Z" fill="black"/>
<path d="M46.1501 35.95H43.6001V38.5H46.1501V35.95Z" fill="black"/>
<path d="M58.9001 35.95H56.3501V38.5H58.9001V35.95Z" fill="black"/>
<path d="M61.4499 35.95H58.8999V38.5H61.4499V35.95Z" fill="black"/>
<path d="M69.1 35.95H66.55V38.5H69.1V35.95Z" fill="black"/>
<path d="M76.75 35.95H74.2V38.5H76.75V35.95Z" fill="black"/>
<path d="M86.9499 35.95H84.3999V38.5H86.9499V35.95Z" fill="black"/>
<path d="M89.5 35.95H86.95V38.5H89.5V35.95Z" fill="black"/>
<path d="M92.05 35.95H89.5V38.5H92.05V35.95Z" fill="black"/>
<path d="M10.4499 38.5H7.8999V41.05H10.4499V38.5Z" fill="black"/>
<path d="M15.55 38.5H13V41.05H15.55V38.5Z" fill="black"/>
<path d="M18.1 38.5H15.55V41.05H18.1V38.5Z" fill="black"/>
<path d="M25.75 38.5H23.2V41.05H25.75V38.5Z" fill="black"/>
<path d="M33.4001 38.5H30.8501V41.05H33.4001V38.5Z" fill="black"/>
<path d="M35.9499 38.5H33.3999V41.05H35.9499V38.5Z" fill="black"/>
<path d="M41.05 38.5H38.5V41.05H41.05V38.5Z" fill="black"/>
<path d="M43.6 38.5H41.05V41.05H43.6V38.5Z" fill="black"/>
<path d="M48.6999 38.5H46.1499V41.05H48.6999V38.5Z" fill="black"/>
<path d="M53.8 38.5H51.25V41.05H53.8V38.5Z" fill="black"/>
<path d="M56.35 38.5H53.8V41.05H56.35V38.5Z" fill="black"/>
<path d="M66.55 38.5H64V41.05H66.55V38.5Z" fill="black"/>
<path d="M74.1999 38.5H71.6499V41.05H74.1999V38.5Z" fill="black"/>
<path d="M76.75 38.5H74.2V41.05H76.75V38.5Z" fill="black"/>
<path d="M86.9499 38.5H84.3999V41.05H86.9499V38.5Z" fill="black"/>
<path d="M89.5 38.5H86.95V41.05H89.5V38.5Z" fill="black"/>
<path d="M10.4499 41.05H7.8999V43.6H10.4499V41.05Z" fill="black"/>
<path d="M15.55 41.05H13V43.6H15.55V41.05Z" fill="black"/>
<path d="M23.1999 41.05H20.6499V43.6H23.1999V41.05Z" fill="black"/>
<path d="M28.3 41.05H25.75V43.6H28.3V41.05Z" fill="black"/>
<path d="M30.85 41.05H28.3V43.6H30.85V41.05Z" fill="black"/>
<path d="M46.1501 41.05H43.6001V43.6H46.1501V41.05Z" fill="black"/>
<path d="M48.6999 41.05H46.1499V43.6H48.6999V41.05Z" fill="black"/>
<path d="M61.4499 41.05H58.8999V43.6H61.4499V41.05Z" fill="black"/>
<path d="M64 41.05H61.45V43.6H64V41.05Z" fill="black"/>
<path d="M76.75 41.05H74.2V43.6H76.75V41.05Z" fill="black"/>
<path d="M79.3 41.05H76.75V43.6H79.3V41.05Z" fill="black"/>
<path d="M84.4001 41.05H81.8501V43.6H84.4001V41.05Z" fill="black"/>
<path d="M86.9499 41.05H84.3999V43.6H86.9499V41.05Z" fill="black"/>
<path d="M10.4499 43.6001H7.8999V46.1501H10.4499V43.6001Z" fill="black"/>
<path d="M13 43.6001H10.45V46.1501H13V43.6001Z" fill="black"/>
<path d="M15.55 43.6001H13V46.1501H15.55V43.6001Z" fill="black"/>
<path d="M25.75 43.6001H23.2V46.1501H25.75V43.6001Z" fill="black"/>
<path d="M30.85 43.6001H28.3V46.1501H30.85V43.6001Z" fill="black"/>
<path d="M35.9499 43.6001H33.3999V46.1501H35.9499V43.6001Z" fill="black"/>
<path d="M38.5 43.6001H35.95V46.1501H38.5V43.6001Z" fill="black"/>
<path d="M41.05 43.6001H38.5V46.1501H41.05V43.6001Z" fill="black"/>
<path d="M51.25 43.6001H48.7V46.1501H51.25V43.6001Z" fill="black"/>
<path d="M61.4499 43.6001H58.8999V46.1501H61.4499V43.6001Z" fill="black"/>
<path d="M66.55 43.6001H64V46.1501H66.55V43.6001Z" fill="black"/>
<path d="M74.1999 43.6001H71.6499V46.1501H74.1999V43.6001Z" fill="black"/>
<path d="M79.3 43.6001H76.75V46.1501H79.3V43.6001Z" fill="black"/>
<path d="M81.85 43.6001H79.3V46.1501H81.85V43.6001Z" fill="black"/>
<path d="M84.4001 43.6001H81.8501V46.1501H84.4001V43.6001Z" fill="black"/>
<path d="M89.5 43.6001H86.95V46.1501H89.5V43.6001Z" fill="black"/>
<path d="M13 46.1499H10.45V48.6999H13V46.1499Z" fill="black"/>
<path d="M15.55 46.1499H13V48.6999H15.55V46.1499Z" fill="black"/>
<path d="M20.6501 46.1499H18.1001V48.6999H20.6501V46.1499Z" fill="black"/>
<path d="M23.1999 46.1499H20.6499V48.6999H23.1999V46.1499Z" fill="black"/>
<path d="M33.4001 46.1499H30.8501V48.6999H33.4001V46.1499Z" fill="black"/>
<path d="M38.5 46.1499H35.95V48.6999H38.5V46.1499Z" fill="black"/>
<path d="M51.25 46.1499H48.7V48.6999H51.25V46.1499Z" fill="black"/>
<path d="M56.35 46.1499H53.8V48.6999H56.35V46.1499Z" fill="black"/>
<path d="M58.9001 46.1499H56.3501V48.6999H58.9001V46.1499Z" fill="black"/>
<path d="M61.4499 46.1499H58.8999V48.6999H61.4499V46.1499Z" fill="black"/>
<path d="M64 46.1499H61.45V48.6999H64V46.1499Z" fill="black"/>
<path d="M69.1 46.1499H66.55V48.6999H69.1V46.1499Z" fill="black"/>
<path d="M76.75 46.1499H74.2V48.6999H76.75V46.1499Z" fill="black"/>
<path d="M86.9499 46.1499H84.3999V48.6999H86.9499V46.1499Z" fill="black"/>
<path d="M89.5 46.1499H86.95V48.6999H89.5V46.1499Z" fill="black"/>
<path d="M92.05 46.1499H89.5V48.6999H92.05V46.1499Z" fill="black"/>
<path d="M10.4499 48.7H7.8999V51.25H10.4499V48.7Z" fill="black"/>
<path d="M18.1 48.7H15.55V51.25H18.1V48.7Z" fill="black"/>
<path d="M23.1999 48.7H20.6499V51.25H23.1999V48.7Z" fill="black"/>
<path d="M25.75 48.7H23.2V51.25H25.75V48.7Z" fill="black"/>
<path d="M28.3 48.7H25.75V51.25H28.3V48.7Z" fill="black"/>
<path d="M35.9499 48.7H33.3999V51.25H35.9499V48.7Z" fill="black"/>
<path d="M38.5 48.7H35.95V51.25H38.5V48.7Z" fill="black"/>
<path d="M48.6999 48.7H46.1499V51.25H48.6999V48.7Z" fill="black"/>
<path d="M64 48.7H61.45V51.25H64V48.7Z" fill="black"/>
<path d="M71.6501 48.7H69.1001V51.25H71.6501V48.7Z" fill="black"/>
<path d="M74.1999 48.7H71.6499V51.25H74.1999V48.7Z" fill="black"/>
<path d="M76.75 48.7H74.2V51.25H76.75V48.7Z" fill="black"/>
<path d="M79.3 48.7H76.75V51.25H79.3V48.7Z" fill="black"/>
<path d="M84.4001 48.7H81.8501V51.25H84.4001V48.7Z" fill="black"/>
<path d="M89.5 48.7H86.95V51.25H89.5V48.7Z" fill="black"/>
<path d="M13 51.25H10.45V53.8H13V51.25Z" fill="black"/>
<path d="M20.6501 51.25H18.1001V53.8H20.6501V51.25Z" fill="black"/>
<path d="M23.1999 51.25H20.6499V53.8H23.1999V51.25Z" fill="black"/>
<path d="M28.3 51.25H25.75V53.8H28.3V51.25Z" fill="black"/>
<path d="M35.9499 51.25H33.3999V53.8H35.9499V51.25Z" fill="black"/>
<path d="M41.05 51.25H38.5V53.8H41.05V51.25Z" fill="black"/>
<path d="M43.6 51.25H41.05V53.8H43.6V51.25Z" fill="black"/>
<path d="M51.25 51.25H48.7V53.8H51.25V51.25Z" fill="black"/>
<path d="M58.9001 51.25H56.3501V53.8H58.9001V51.25Z" fill="black"/>
<path d="M61.4499 51.25H58.8999V53.8H61.4499V51.25Z" fill="black"/>
<path d="M64 51.25H61.45V53.8H64V51.25Z" fill="black"/>
<path d="M66.55 51.25H64V53.8H66.55V51.25Z" fill="black"/>
<path d="M71.6501 51.25H69.1001V53.8H71.6501V51.25Z" fill="black"/>
<path d="M74.1999 51.25H71.6499V53.8H74.1999V51.25Z" fill="black"/>
<path d="M79.3 51.25H76.75V53.8H79.3V51.25Z" fill="black"/>
<path d="M86.9499 51.25H84.3999V53.8H86.9499V51.25Z" fill="black"/>
<path d="M10.4499 53.8H7.8999V56.35H10.4499V53.8Z" fill="black"/>
<path d="M13 53.8H10.45V56.35H13V53.8Z" fill="black"/>
<path d="M15.55 53.8H13V56.35H15.55V53.8Z" fill="black"/>
<path d="M18.1 53.8H15.55V56.35H18.1V53.8Z" fill="black"/>
<path d="M23.1999 53.8H20.6499V56.35H23.1999V53.8Z" fill="black"/>
<path d="M25.75 53.8H23.2V56.35H25.75V53.8Z" fill="black"/>
<path d="M35.9499 53.8H33.3999V56.35H35.9499V53.8Z" fill="black"/>
<path d="M43.6 53.8H41.05V56.35H43.6V53.8Z" fill="black"/>
<path d="M46.1501 53.8H43.6001V56.35H46.1501V53.8Z" fill="black"/>
<path d="M53.8 53.8H51.25V56.35H53.8V53.8Z" fill="black"/>
<path d="M56.35 53.8H53.8V56.35H56.35V53.8Z" fill="black"/>
<path d="M58.9001 53.8H56.3501V56.35H58.9001V53.8Z" fill="black"/>
<path d="M66.55 53.8H64V56.35H66.55V53.8Z" fill="black"/>
<path d="M69.1 53.8H66.55V56.35H69.1V53.8Z" fill="black"/>
<path d="M71.6501 53.8H69.1001V56.35H71.6501V53.8Z" fill="black"/>
<path d="M74.1999 53.8H71.6499V56.35H74.1999V53.8Z" fill="black"/>
<path d="M81.85 53.8H79.3V56.35H81.85V53.8Z" fill="black"/>
<path d="M84.4001 53.8H81.8501V56.35H84.4001V53.8Z" fill="black"/>
<path d="M92.05 53.8H89.5V56.35H92.05V53.8Z" fill="black"/>
<path d="M13 56.3501H10.45V58.9001H13V56.3501Z" fill="black"/>
<path d="M15.55 56.3501H13V58.9001H15.55V56.3501Z" fill="black"/>
<path d="M33.4001 56.3501H30.8501V58.9001H33.4001V56.3501Z" fill="black"/>
<path d="M41.05 56.3501H38.5V58.9001H41.05V56.3501Z" fill="black"/>
<path d="M43.6 56.3501H41.05V58.9001H43.6V56.3501Z" fill="black"/>
<path d="M56.35 56.3501H53.8V58.9001H56.35V56.3501Z" fill="black"/>
<path d="M58.9001 56.3501H56.3501V58.9001H58.9001V56.3501Z" fill="black"/>
<path d="M61.4499 56.3501H58.8999V58.9001H61.4499V56.3501Z" fill="black"/>
<path d="M64 56.3501H61.45V58.9001H64V56.3501Z" fill="black"/>
<path d="M66.55 56.3501H64V58.9001H66.55V56.3501Z" fill="black"/>
<path d="M69.1 56.3501H66.55V58.9001H69.1V56.3501Z" fill="black"/>
<path d="M76.75 56.3501H74.2V58.9001H76.75V56.3501Z" fill="black"/>
<path d="M92.05 56.3501H89.5V58.9001H92.05V56.3501Z" fill="black"/>
<path d="M13 58.8999H10.45V61.4499H13V58.8999Z" fill="black"/>
<path d="M15.55 58.8999H13V61.4499H15.55V58.8999Z" fill="black"/>
<path d="M18.1 58.8999H15.55V61.4499H18.1V58.8999Z" fill="black"/>
<path d="M20.6501 58.8999H18.1001V61.4499H20.6501V58.8999Z" fill="black"/>
<path d="M25.75 58.8999H23.2V61.4499H25.75V58.8999Z" fill="black"/>
<path d="M28.3 58.8999H25.75V61.4499H28.3V58.8999Z" fill="black"/>
<path d="M30.85 58.8999H28.3V61.4499H30.85V58.8999Z" fill="black"/>
<path d="M35.9499 58.8999H33.3999V61.4499H35.9499V58.8999Z" fill="black"/>
<path d="M41.05 58.8999H38.5V61.4499H41.05V58.8999Z" fill="black"/>
<path d="M46.1501 58.8999H43.6001V61.4499H46.1501V58.8999Z" fill="black"/>
<path d="M48.6999 58.8999H46.1499V61.4499H48.6999V58.8999Z" fill="black"/>
<path d="M51.25 58.8999H48.7V61.4499H51.25V58.8999Z" fill="black"/>
<path d="M53.8 58.8999H51.25V61.4499H53.8V58.8999Z" fill="black"/>
<path d="M61.4499 58.8999H58.8999V61.4499H61.4499V58.8999Z" fill="black"/>
<path d="M64 58.8999H61.45V61.4499H64V58.8999Z" fill="black"/>
<path d="M66.55 58.8999H64V61.4499H66.55V58.8999Z" fill="black"/>
<path d="M74.1999 58.8999H71.6499V61.4499H74.1999V58.8999Z" fill="black"/>
<path d="M89.5 58.8999H86.95V61.4499H89.5V58.8999Z" fill="black"/>
<path d="M10.4499 61.45H7.8999V64H10.4499V61.45Z" fill="black"/>
<path d="M15.55 61.45H13V64H15.55V61.45Z" fill="black"/>
<path d="M18.1 61.45H15.55V64H18.1V61.45Z" fill="black"/>
<path d="M20.6501 61.45H18.1001V64H20.6501V61.45Z" fill="black"/>
<path d="M28.3 61.45H25.75V64H28.3V61.45Z" fill="black"/>
<path d="M30.85 61.45H28.3V64H30.85V61.45Z" fill="black"/>
<path d="M35.9499 61.45H33.3999V64H35.9499V61.45Z" fill="black"/>
<path d="M48.6999 61.45H46.1499V64H48.6999V61.45Z" fill="black"/>
<path d="M51.25 61.45H48.7V64H51.25V61.45Z" fill="black"/>
<path d="M56.35 61.45H53.8V64H56.35V61.45Z" fill="black"/>
<path d="M61.4499 61.45H58.8999V64H61.4499V61.45Z" fill="black"/>
<path d="M64 61.45H61.45V64H64V61.45Z" fill="black"/>
<path d="M69.1 61.45H66.55V64H69.1V61.45Z" fill="black"/>
<path d="M71.6501 61.45H69.1001V64H71.6501V61.45Z" fill="black"/>
<path d="M74.1999 61.45H71.6499V64H74.1999V61.45Z" fill="black"/>
<path d="M79.3 61.45H76.75V64H79.3V61.45Z" fill="black"/>
<path d="M81.85 61.45H79.3V64H81.85V61.45Z" fill="black"/>
<path d="M86.9499 61.45H84.3999V64H86.9499V61.45Z" fill="black"/>
<path d="M89.5 61.45H86.95V64H89.5V61.45Z" fill="black"/>
<path d="M10.4499 64H7.8999V66.55H10.4499V64Z" fill="black"/>
<path d="M15.55 64H13V66.55H15.55V64Z" fill="black"/>
<path d="M20.6501 64H18.1001V66.55H20.6501V64Z" fill="black"/>
<path d="M23.1999 64H20.6499V66.55H23.1999V64Z" fill="black"/>
<path d="M25.75 64H23.2V66.55H25.75V64Z" fill="black"/>
<path d="M28.3 64H25.75V66.55H28.3V64Z" fill="black"/>
<path d="M33.4001 64H30.8501V66.55H33.4001V64Z" fill="black"/>
<path d="M38.5 64H35.95V66.55H38.5V64Z" fill="black"/>
<path d="M41.05 64H38.5V66.55H41.05V64Z" fill="black"/>
<path d="M48.6999 64H46.1499V66.55H48.6999V64Z" fill="black"/>
<path d="M53.8 64H51.25V66.55H53.8V64Z" fill="black"/>
<path d="M61.4499 64H58.8999V66.55H61.4499V64Z" fill="black"/>
<path d="M66.55 64H64V66.55H66.55V64Z" fill="black"/>
<path d="M81.85 64H79.3V66.55H81.85V64Z" fill="black"/>
<path d="M89.5 64H86.95V66.55H89.5V64Z" fill="black"/>
<path d="M92.05 64H89.5V66.55H92.05V64Z" fill="black"/>
<path d="M10.4499 66.55H7.8999V69.1H10.4499V66.55Z" fill="black"/>
<path d="M20.6501 66.55H18.1001V69.1H20.6501V66.55Z" fill="black"/>
<path d="M28.3 66.55H25.75V69.1H28.3V66.55Z" fill="black"/>
<path d="M30.85 66.55H28.3V69.1H30.85V66.55Z" fill="black"/>
<path d="M33.4001 66.55H30.8501V69.1H33.4001V66.55Z" fill="black"/>
<path d="M35.9499 66.55H33.3999V69.1H35.9499V66.55Z" fill="black"/>
<path d="M38.5 66.55H35.95V69.1H38.5V66.55Z" fill="black"/>
<path d="M46.1501 66.55H43.6001V69.1H46.1501V66.55Z" fill="black"/>
<path d="M51.25 66.55H48.7V69.1H51.25V66.55Z" fill="black"/>
<path d="M53.8 66.55H51.25V69.1H53.8V66.55Z" fill="black"/>
<path d="M56.35 66.55H53.8V69.1H56.35V66.55Z" fill="black"/>
<path d="M58.9001 66.55H56.3501V69.1H58.9001V66.55Z" fill="black"/>
<path d="M61.4499 66.55H58.8999V69.1H61.4499V66.55Z" fill="black"/>
<path d="M69.1 66.55H66.55V69.1H69.1V66.55Z" fill="black"/>
<path d="M76.75 66.55H74.2V69.1H76.75V66.55Z" fill="black"/>
<path d="M84.4001 66.55H81.8501V69.1H84.4001V66.55Z" fill="black"/>
<path d="M89.5 66.55H86.95V69.1H89.5V66.55Z" fill="black"/>
<path d="M92.05 66.55H89.5V69.1H92.05V66.55Z" fill="black"/>
<path d="M10.4499 69.1001H7.8999V71.6501H10.4499V69.1001Z" fill="black"/>
<path d="M23.1999 69.1001H20.6499V71.6501H23.1999V69.1001Z" fill="black"/>
<path d="M25.75 69.1001H23.2V71.6501H25.75V69.1001Z" fill="black"/>
<path d="M30.85 69.1001H28.3V71.6501H30.85V69.1001Z" fill="black"/>
<path d="M33.4001 69.1001H30.8501V71.6501H33.4001V69.1001Z" fill="black"/>
<path d="M35.9499 69.1001H33.3999V71.6501H35.9499V69.1001Z" fill="black"/>
<path d="M38.5 69.1001H35.95V71.6501H38.5V69.1001Z" fill="black"/>
<path d="M48.6999 69.1001H46.1499V71.6501H48.6999V69.1001Z" fill="black"/>
<path d="M61.4499 69.1001H58.8999V71.6501H61.4499V69.1001Z" fill="black"/>
<path d="M66.55 69.1001H64V71.6501H66.55V69.1001Z" fill="black"/>
<path d="M71.6501 69.1001H69.1001V71.6501H71.6501V69.1001Z" fill="black"/>
<path d="M74.1999 69.1001H71.6499V71.6501H74.1999V69.1001Z" fill="black"/>
<path d="M76.75 69.1001H74.2V71.6501H76.75V69.1001Z" fill="black"/>
<path d="M79.3 69.1001H76.75V71.6501H79.3V69.1001Z" fill="black"/>
<path d="M81.85 69.1001H79.3V71.6501H81.85V69.1001Z" fill="black"/>
<path d="M84.4001 69.1001H81.8501V71.6501H84.4001V69.1001Z" fill="black"/>
<path d="M30.85 71.6499H28.3V74.1999H30.85V71.6499Z" fill="black"/>
<path d="M35.9499 71.6499H33.3999V74.1999H35.9499V71.6499Z" fill="black"/>
<path d="M41.05 71.6499H38.5V74.1999H41.05V71.6499Z" fill="black"/>
<path d="M43.6 71.6499H41.05V74.1999H43.6V71.6499Z" fill="black"/>
<path d="M46.1501 71.6499H43.6001V74.1999H46.1501V71.6499Z" fill="black"/>
<path d="M48.6999 71.6499H46.1499V74.1999H48.6999V71.6499Z" fill="black"/>
<path d="M51.25 71.6499H48.7V74.1999H51.25V71.6499Z" fill="black"/>
<path d="M56.35 71.6499H53.8V74.1999H56.35V71.6499Z" fill="black"/>
<path d="M58.9001 71.6499H56.3501V74.1999H58.9001V71.6499Z" fill="black"/>
<path d="M61.4499 71.6499H58.8999V74.1999H61.4499V71.6499Z" fill="black"/>
<path d="M64 71.6499H61.45V74.1999H64V71.6499Z" fill="black"/>
<path d="M66.55 71.6499H64V74.1999H66.55V71.6499Z" fill="black"/>
<path d="M69.1 71.6499H66.55V74.1999H69.1V71.6499Z" fill="black"/>
<path d="M71.6501 71.6499H69.1001V74.1999H71.6501V71.6499Z" fill="black"/>
<path d="M81.85 71.6499H79.3V74.1999H81.85V71.6499Z" fill="black"/>
<path d="M86.9499 71.6499H84.3999V74.1999H86.9499V71.6499Z" fill="black"/>
<path d="M30.85 74.2H28.3V76.75H30.85V74.2Z" fill="black"/>
<path d="M33.4001 74.2H30.8501V76.75H33.4001V74.2Z" fill="black"/>
<path d="M35.9499 74.2H33.3999V76.75H35.9499V74.2Z" fill="black"/>
<path d="M43.6 74.2H41.05V76.75H43.6V74.2Z" fill="black"/>
<path d="M46.1501 74.2H43.6001V76.75H46.1501V74.2Z" fill="black"/>
<path d="M53.8 74.2H51.25V76.75H53.8V74.2Z" fill="black"/>
<path d="M58.9001 74.2H56.3501V76.75H58.9001V74.2Z" fill="black"/>
<path d="M69.1 74.2H66.55V76.75H69.1V74.2Z" fill="black"/>
<path d="M71.6501 74.2H69.1001V76.75H71.6501V74.2Z" fill="black"/>
<path d="M76.75 74.2H74.2V76.75H76.75V74.2Z" fill="black"/>
<path d="M81.85 74.2H79.3V76.75H81.85V74.2Z" fill="black"/>
<path d="M89.5 74.2H86.95V76.75H89.5V74.2Z" fill="black"/>
<path d="M33.4001 76.75H30.8501V79.3H33.4001V76.75Z" fill="black"/>
<path d="M35.9499 76.75H33.3999V79.3H35.9499V76.75Z" fill="black"/>
<path d="M41.05 76.75H38.5V79.3H41.05V76.75Z" fill="black"/>
<path d="M43.6 76.75H41.05V79.3H43.6V76.75Z" fill="black"/>
<path d="M51.25 76.75H48.7V79.3H51.25V76.75Z" fill="black"/>
<path d="M53.8 76.75H51.25V79.3H53.8V76.75Z" fill="black"/>
<path d="M56.35 76.75H53.8V79.3H56.35V76.75Z" fill="black"/>
<path d="M58.9001 76.75H56.3501V79.3H58.9001V76.75Z" fill="black"/>
<path d="M61.4499 76.75H58.8999V79.3H61.4499V76.75Z" fill="black"/>
<path d="M64 76.75H61.45V79.3H64V76.75Z" fill="black"/>
<path d="M66.55 76.75H64V79.3H66.55V76.75Z" fill="black"/>
<path d="M69.1 76.75H66.55V79.3H69.1V76.75Z" fill="black"/>
<path d="M71.6501 76.75H69.1001V79.3H71.6501V76.75Z" fill="black"/>
<path d="M81.85 76.75H79.3V79.3H81.85V76.75Z" fill="black"/>
<path d="M84.4001 76.75H81.8501V79.3H84.4001V76.75Z" fill="black"/>
<path d="M92.05 76.75H89.5V79.3H92.05V76.75Z" fill="black"/>
<path d="M30.85 79.3H28.3V81.85H30.85V79.3Z" fill="black"/>
<path d="M33.4001 79.3H30.8501V81.85H33.4001V79.3Z" fill="black"/>
<path d="M41.05 79.3H38.5V81.85H41.05V79.3Z" fill="black"/>
<path d="M46.1501 79.3H43.6001V81.85H46.1501V79.3Z" fill="black"/>
<path d="M48.6999 79.3H46.1499V81.85H48.6999V79.3Z" fill="black"/>
<path d="M51.25 79.3H48.7V81.85H51.25V79.3Z" fill="black"/>
<path d="M53.8 79.3H51.25V81.85H53.8V79.3Z" fill="black"/>
<path d="M61.4499 79.3H58.8999V81.85H61.4499V79.3Z" fill="black"/>
<path d="M64 79.3H61.45V81.85H64V79.3Z" fill="black"/>
<path d="M69.1 79.3H66.55V81.85H69.1V79.3Z" fill="black"/>
<path d="M71.6501 79.3H69.1001V81.85H71.6501V79.3Z" fill="black"/>
<path d="M74.1999 79.3H71.6499V81.85H74.1999V79.3Z" fill="black"/>
<path d="M76.75 79.3H74.2V81.85H76.75V79.3Z" fill="black"/>
<path d="M79.3 79.3H76.75V81.85H79.3V79.3Z" fill="black"/>
<path d="M81.85 79.3H79.3V81.85H81.85V79.3Z" fill="black"/>
<path d="M84.4001 79.3H81.8501V81.85H84.4001V79.3Z" fill="black"/>
<path d="M92.05 79.3H89.5V81.85H92.05V79.3Z" fill="black"/>
<path d="M30.85 81.8501H28.3V84.4001H30.85V81.8501Z" fill="black"/>
<path d="M33.4001 81.8501H30.8501V84.4001H33.4001V81.8501Z" fill="black"/>
<path d="M48.6999 81.8501H46.1499V84.4001H48.6999V81.8501Z" fill="black"/>
<path d="M58.9001 81.8501H56.3501V84.4001H58.9001V81.8501Z" fill="black"/>
<path d="M64 81.8501H61.45V84.4001H64V81.8501Z" fill="black"/>
<path d="M66.55 81.8501H64V84.4001H66.55V81.8501Z" fill="black"/>
<path d="M74.1999 81.8501H71.6499V84.4001H74.1999V81.8501Z" fill="black"/>
<path d="M76.75 81.8501H74.2V84.4001H76.75V81.8501Z" fill="black"/>
<path d="M84.4001 81.8501H81.8501V84.4001H84.4001V81.8501Z" fill="black"/>
<path d="M86.9499 81.8501H84.3999V84.4001H86.9499V81.8501Z" fill="black"/>
<path d="M89.5 81.8501H86.95V84.4001H89.5V81.8501Z" fill="black"/>
<path d="M30.85 84.3999H28.3V86.9499H30.85V84.3999Z" fill="black"/>
<path d="M38.5 84.3999H35.95V86.9499H38.5V84.3999Z" fill="black"/>
<path d="M41.05 84.3999H38.5V86.9499H41.05V84.3999Z" fill="black"/>
<path d="M48.6999 84.3999H46.1499V86.9499H48.6999V84.3999Z" fill="black"/>
<path d="M53.8 84.3999H51.25V86.9499H53.8V84.3999Z" fill="black"/>
<path d="M69.1 84.3999H66.55V86.9499H69.1V84.3999Z" fill="black"/>
<path d="M71.6501 84.3999H69.1001V86.9499H71.6501V84.3999Z" fill="black"/>
<path d="M74.1999 84.3999H71.6499V86.9499H74.1999V84.3999Z" fill="black"/>
<path d="M76.75 84.3999H74.2V86.9499H76.75V84.3999Z" fill="black"/>
<path d="M79.3 84.3999H76.75V86.9499H79.3V84.3999Z" fill="black"/>
<path d="M84.4001 84.3999H81.8501V86.9499H84.4001V84.3999Z" fill="black"/>
<path d="M30.85 86.95H28.3V89.5H30.85V86.95Z" fill="black"/>
<path d="M35.9499 86.95H33.3999V89.5H35.9499V86.95Z" fill="black"/>
<path d="M38.5 86.95H35.95V89.5H38.5V86.95Z" fill="black"/>
<path d="M46.1501 86.95H43.6001V89.5H46.1501V86.95Z" fill="black"/>
<path d="M51.25 86.95H48.7V89.5H51.25V86.95Z" fill="black"/>
<path d="M56.35 86.95H53.8V89.5H56.35V86.95Z" fill="black"/>
<path d="M58.9001 86.95H56.3501V89.5H58.9001V86.95Z" fill="black"/>
<path d="M61.4499 86.95H58.8999V89.5H61.4499V86.95Z" fill="black"/>
<path d="M66.55 86.95H64V89.5H66.55V86.95Z" fill="black"/>
<path d="M74.1999 86.95H71.6499V89.5H74.1999V86.95Z" fill="black"/>
<path d="M79.3 86.95H76.75V89.5H79.3V86.95Z" fill="black"/>
<path d="M81.85 86.95H79.3V89.5H81.85V86.95Z" fill="black"/>
<path d="M86.9499 86.95H84.3999V89.5H86.9499V86.95Z" fill="black"/>
<path d="M89.5 86.95H86.95V89.5H89.5V86.95Z" fill="black"/>
<path d="M92.05 86.95H89.5V89.5H92.05V86.95Z" fill="black"/>
<path d="M30.85 89.5H28.3V92.05H30.85V89.5Z" fill="black"/>
<path d="M33.4001 89.5H30.8501V92.05H33.4001V89.5Z" fill="black"/>
<path d="M38.5 89.5H35.95V92.05H38.5V89.5Z" fill="black"/>
<path d="M48.6999 89.5H46.1499V92.05H48.6999V89.5Z" fill="black"/>
<path d="M51.25 89.5H48.7V92.05H51.25V89.5Z" fill="black"/>
<path d="M53.8 89.5H51.25V92.05H53.8V89.5Z" fill="black"/>
<path d="M56.35 89.5H53.8V92.05H56.35V89.5Z" fill="black"/>
<path d="M61.4499 89.5H58.8999V92.05H61.4499V89.5Z" fill="black"/>
<path d="M66.55 89.5H64V92.05H66.55V89.5Z" fill="black"/>
<path d="M76.75 89.5H74.2V92.05H76.75V89.5Z" fill="black"/>
<path d="M86.9499 89.5H84.3999V92.05H86.9499V89.5Z" fill="black"/>
<path d="M89.5 89.5H86.95V92.05H89.5V89.5Z" fill="black"/>
<g clip-path="url(#clip1_482_228)">
<path d="M23.2253 7.8999H20.6753H18.1253H18.1253H15.5753H13.0253H10.4753H7.92529V10.4499V12.9999V15.5499V18.0999V20.6499V23.1999V25.7499H10.4753H13.0253H15.5753H18.1253H18.1253H20.6753H23.2253H25.7753V23.1999V20.6499V18.0999V15.5499V12.9999V10.4499V7.8999H23.2253ZM23.2253 12.9999V15.5499V18.0999V20.6499V23.1999H20.6753H18.1253H18.1253H15.5753H13.0253H10.4753V20.6499V18.0999V15.5499V12.9999V10.4499H13.0253H15.5753H18.1253H18.1253H20.6753H23.2253V12.9999Z" fill="black"/>
</g>
<path d="M18.1 13H18.0999H15.55H13V15.55V18.1V20.65H15.55H18.0999H18.1H20.6499V18.1V15.55V13H18.1Z" fill="black"/>
<g clip-path="url(#clip2_482_228)">
<path d="M89.5254 7.8999H86.9753H84.4253H84.4253H81.8753H79.3254H76.7754H74.2253V10.4499V12.9999V15.5499V18.0999V20.6499V23.1999V25.7499H76.7754H79.3254H81.8753H84.4253H84.4253H86.9753H89.5254H92.0753V23.1999V20.6499V18.0999V15.5499V12.9999V10.4499V7.8999H89.5254ZM89.5254 12.9999V15.5499V18.0999V20.6499V23.1999H86.9753H84.4253H84.4253H81.8753H79.3254H76.7754V20.6499V18.0999V15.5499V12.9999V10.4499H79.3254H81.8753H84.4253H84.4253H86.9753H89.5254V12.9999Z" fill="black"/>
</g>
<path d="M84.4 13H84.4H81.85H79.3V15.55V18.1V20.65H81.85H84.4H84.4H86.95V18.1V15.55V13H84.4Z" fill="black"/>
<g clip-path="url(#clip3_482_228)">
<path d="M23.2253 74.2H20.6753H18.1253H18.1253H15.5753H13.0253H10.4753H7.92529V76.7499V79.2999V81.8499V84.3999V86.9499V89.4999V92.0499H10.4753H13.0253H15.5753H18.1253H18.1253H20.6753H23.2253H25.7753V89.4999V86.9499V84.3999V81.8499V79.2999V76.7499V74.2H23.2253ZM23.2253 79.2999V81.8499V84.3999V86.9499V89.4999H20.6753H18.1253H18.1253H15.5753H13.0253H10.4753V86.9499V84.3999V81.8499V79.2999V76.7499H13.0253H15.5753H18.1253H18.1253H20.6753H23.2253V79.2999Z" fill="black"/>
</g>
<path d="M18.1 79.3H18.0999H15.55H13V81.85V84.4001V86.95H15.55H18.0999H18.1H20.6499V84.4001V81.85V79.3H18.1Z" fill="black"/>
<rect x="42" y="42" width="16" height="16" rx="2" fill="white"/>
<g clip-path="url(#clip4_482_228)">
<path d="M53.4832 44.9341C52.9389 44.303 51.955 44.0325 50.6963 44.0325H47.0432C46.9186 44.0325 46.7982 44.0777 46.7035 44.1599C46.6088 44.2422 46.546 44.3561 46.5265 44.4812L45.0054 54.2945C44.9752 54.488 45.1225 54.6632 45.3153 54.6632H47.5706L48.137 51.0088L48.1194 51.1232C48.1598 50.8649 48.377 50.6744 48.6342 50.6744H49.7059C51.8113 50.6744 53.4598 49.8045 53.9414 47.2881C53.9557 47.2137 53.9681 47.1412 53.9788 47.0705C53.918 47.0377 53.918 47.0377 53.9788 47.0705C54.1222 46.1404 53.9778 45.5073 53.4832 44.9341Z" fill="#27346A"/>
<path d="M49 46.7354C49.0616 46.7055 49.1291 46.6901 49.1974 46.6901H52.0614C52.4005 46.6901 52.7168 46.7126 53.0059 46.7599C53.0868 46.773 53.1672 46.7887 53.2472 46.8069C53.3605 46.8323 53.4725 46.8634 53.5827 46.9001C53.7248 46.9484 53.8572 47.0046 53.9788 47.0705C54.1222 46.14 53.9778 45.5073 53.4832 44.9341C52.9386 44.303 51.955 44.0325 50.6963 44.0325H47.0429C46.7856 44.0325 46.5668 44.223 46.5265 44.4812L45.0054 54.2941C44.9752 54.488 45.1225 54.663 45.315 54.663H47.5706L48.7457 47.0827C48.7573 47.0082 48.7865 46.9377 48.8307 46.8772C48.875 46.8167 48.9331 46.768 49 46.7354Z" fill="#27346A"/>
<path d="M53.9414 47.2882C53.4598 49.8042 51.8113 50.6745 49.7059 50.6745H48.6338C48.3766 50.6745 48.1594 50.865 48.1195 51.1233L47.4148 55.6672C47.3885 55.8366 47.5172 55.99 47.6857 55.99H49.5868C49.6957 55.99 49.8011 55.9504 49.8839 55.8785C49.9667 55.8065 50.0215 55.7068 50.0385 55.5974L50.057 55.4989L50.4154 53.1888L50.4384 53.0612C50.4555 52.9518 50.5103 52.8521 50.5931 52.7802C50.6759 52.7082 50.7812 52.6686 50.8901 52.6686H51.1746C53.0163 52.6686 54.4584 51.9075 54.8798 49.7063C55.0557 48.7865 54.9646 48.0185 54.4993 47.479C54.3582 47.3156 54.1829 47.1807 53.9787 47.0706C53.9677 47.1417 53.9557 47.2138 53.9414 47.2882Z" fill="#2790C3"/>
<path d="M53.4747 46.8659C53.3996 46.8436 53.3238 46.8239 53.2474 46.8067C53.1674 46.7888 53.087 46.7733 53.0061 46.7601C52.7167 46.7124 52.4006 46.6899 52.0612 46.6899H49.1976C49.1292 46.6898 49.0617 46.7054 49.0002 46.7356C48.9332 46.7681 48.8751 46.8167 48.8308 46.8772C48.7865 46.9377 48.7573 47.0083 48.7459 47.0829L48.1372 51.0086L48.1196 51.1231C48.1597 50.8648 48.3769 50.6742 48.6341 50.6742H49.7061C51.8115 50.6742 53.46 49.8043 53.9416 47.288C53.9559 47.2135 53.9679 47.1414 53.979 47.0703C53.8571 47.0048 53.7251 46.9483 53.5829 46.9003C53.547 46.8882 53.511 46.8767 53.4747 46.8659" fill="#1F264F"/>
</g>
</g>
<defs>
<clipPath id="clip0_482_228">
<rect width="100" height="100" fill="white"/>
</clipPath>
<clipPath id="clip1_482_228">
<rect width="17.85" height="17.85" fill="white" transform="translate(7.8999 7.8999)"/>
</clipPath>
<clipPath id="clip2_482_228">
<rect width="17.85" height="17.85" fill="white" transform="translate(74.2 7.8999)"/>
</clipPath>
<clipPath id="clip3_482_228">
<rect width="17.85" height="17.85" fill="white" transform="translate(7.8999 74.2)"/>
</clipPath>
<clipPath id="clip4_482_228">
<rect width="10" height="12" fill="white" transform="translate(45 44)"/>
</clipPath>
</defs>
</svg>
