<svg width="32" height="32" viewBox="0 0 32 32" fill="none" xmlns="http://www.w3.org/2000/svg">
<path d="M9.83218 28.6935C7.48182 27.8596 5.38087 26.4441 3.72515 24.5791C2.06943 22.714 0.912848 20.4602 0.363213 18.0276C-0.186423 15.5949 -0.111222 13.0628 0.581808 10.6671C1.27484 8.27134 2.56313 6.09009 4.32661 4.32661C6.09009 2.56313 8.27134 1.27484 10.6671 0.581808C13.0628 -0.111222 15.5949 -0.186423 18.0276 0.363213C20.4602 0.912848 22.714 2.06943 24.5791 3.72515C26.4441 5.38087 27.8596 7.48182 28.6935 9.83218C26.4178 8.23236 23.7028 7.37581 20.921 7.38003C18.0232 7.38003 15.3372 8.29097 13.1337 9.84203H10.2827C10.0932 10.8514 9.96021 11.9298 9.89127 13.0623C8.7405 14.6728 7.95875 16.5171 7.60161 18.4639C7.25269 15.596 7.3132 12.693 7.78134 9.84203H3.48023C2.80245 11.395 2.45373 13.0716 2.45604 14.766C2.45604 16.5165 2.82042 18.1833 3.48023 19.69H7.4342C7.36039 20.509 7.36039 21.333 7.4342 22.152H4.91804C5.77481 23.2944 6.82855 24.2841 8.02754 25.0695C8.44608 26.3743 9.06158 27.5955 9.83218 28.6935ZM17.9986 5.69849C16.9203 3.33744 15.6843 2.45604 14.766 2.45604C13.8452 2.45604 12.6118 3.33251 11.5334 5.70095C11.2872 6.24757 11.0735 6.80824 10.8933 7.38003H18.6387C18.4586 6.80824 18.2448 6.24757 17.9986 5.70095V5.69849ZM8.32544 7.38003C8.59626 6.40508 8.92124 5.49907 9.293 4.68168C9.4847 4.25724 9.69836 3.84307 9.93312 3.44084C7.94544 4.29228 6.21611 5.65062 4.91804 7.38003H8.32544ZM24.614 7.38003C23.3152 5.65036 21.585 4.29202 19.5965 3.44084C19.8303 3.83722 20.0445 4.2533 20.2366 4.68168C20.6108 5.49907 20.9358 6.40508 21.2066 7.38003H24.614ZM20.921 32C22.3759 32 23.8166 31.7134 25.1608 31.1567C26.5049 30.5999 27.7263 29.7838 28.755 28.755C29.7838 27.7263 30.5999 26.5049 31.1567 25.1608C31.7134 23.8166 32 22.3759 32 20.921C32 19.4661 31.7134 18.0254 31.1567 16.6813C30.5999 15.3371 29.7838 14.1158 28.755 13.087C27.7263 12.0582 26.5049 11.2421 25.1608 10.6854C23.8166 10.1286 22.3759 9.84203 20.921 9.84203C17.9827 9.84203 15.1647 11.0093 13.087 13.087C11.0093 15.1647 9.84203 17.9827 9.84203 20.921C9.84203 23.8593 11.0093 26.6773 13.087 28.755C15.1647 30.8328 17.9827 32 20.921 32ZM23.2698 18.1931H27.0711C28.2652 18.1931 28.7625 19.786 27.7974 20.5172L24.7199 22.8488L25.8942 26.6205C26.2635 27.8023 24.9636 28.7871 23.9985 28.0559L20.921 25.7244L17.8435 28.0559C16.8784 28.7871 15.5785 27.8023 15.9478 26.6205L17.1222 22.8488L14.0447 20.5172C13.0796 19.786 13.5769 18.1931 14.7685 18.1931H18.5747L19.7491 14.4238C19.8202 14.1676 19.9733 13.9418 20.185 13.7809C20.3966 13.62 20.6552 13.5329 20.921 13.5329C21.1869 13.5329 21.4454 13.62 21.6571 13.7809C21.8687 13.9418 22.0218 14.1676 22.0929 14.4238L23.2673 18.1931H23.2698Z" fill="black"/>
</svg>
