<svg width="45" height="64" viewBox="0 0 45 64" fill="none" xmlns="http://www.w3.org/2000/svg">
<path d="M22.3135 0V22.3135H0C0 34.5946 10.0326 44.6271 22.3135 44.6271C34.5945 44.6271 44.6271 34.5945 44.6271 22.3135C44.6271 9.94565 34.5945 0 22.3135 0Z" fill="#3B3834"/>
<path d="M19.6324 57.3406C19.6324 61.0188 16.651 64.0003 12.9728 64.0003C9.29529 64.0003 6.3132 61.0188 6.3132 57.3406C6.3132 53.6631 9.29529 50.6816 12.9728 50.6816C16.651 50.6816 19.6324 53.6631 19.6324 57.3406Z" fill="#3B3834"/>
<path d="M38.3136 57.3406C38.3136 61.0188 35.3315 64.0003 31.6539 64.0003C27.9758 64.0003 24.9943 61.0188 24.9943 57.3406C24.9943 53.6631 27.9758 50.6816 31.6539 50.6816C35.3315 50.6816 38.3136 53.6631 38.3136 57.3406Z" fill="#3B3834"/>
</svg>
