<svg width="229" height="77" viewBox="0 0 229 77" fill="none" xmlns="http://www.w3.org/2000/svg">
<path d="M0.315858 14.1567V0.200626H55.7665V14.1567H36.5768V64H19.5055V14.1567H0.315858ZM60.6332 0.200626H79.9475L92.4083 26.1191H92.9068L105.368 0.200626H124.682L101.255 43.9381V64H84.0596V43.9381L60.6332 0.200626ZM131.293 64V0.200626H158.832C163.567 0.200626 167.71 1.13519 171.261 3.00431C174.812 4.87343 177.575 7.50059 179.548 10.8858C181.521 14.271 182.507 18.2273 182.507 22.7547C182.507 27.3237 181.489 31.28 179.454 34.6236C177.44 37.9673 174.605 40.5425 170.95 42.3493C167.315 44.1562 163.068 45.0596 158.208 45.0596H141.76V31.6019H154.719C156.755 31.6019 158.489 31.2488 159.922 30.5427C161.376 29.8158 162.487 28.7878 163.255 27.4587C164.044 26.1295 164.439 24.5615 164.439 22.7547C164.439 20.9271 164.044 19.3695 163.255 18.0819C162.487 16.7735 161.376 15.7766 159.922 15.0913C158.489 14.3852 156.755 14.0321 154.719 14.0321H148.614V64H131.293ZM228.954 64V76.2116H185.715V64H228.954Z" fill="#2E6A50"/>
</svg>
