<svg width="64" height="15" viewBox="0 0 64 15" fill="none" xmlns="http://www.w3.org/2000/svg">
<path d="M0 2C3.99928 2 3.99928 6.08529 7.99855 6.08529C11.9978 6.08529 11.9978 2 15.9978 2C19.9956 2 19.9956 6.08529 23.9936 6.08529C27.9929 6.08529 27.9929 2 31.9922 2C35.9929 2 35.9929 6.08529 39.9934 6.08529C43.9927 6.08529 43.9927 2 47.992 2C51.9941 2 51.9941 6.08529 55.996 6.08529C59.9981 6.08529 59.9981 2 64 2" stroke="#3B3834" stroke-width="3.40423" stroke-miterlimit="10"/>
<path d="M0 8.80859C3.99928 8.80859 3.99928 12.8939 7.99855 12.8939C11.9978 12.8939 11.9978 8.80859 15.9978 8.80859C19.9956 8.80859 19.9956 12.8939 23.9936 12.8939C27.9929 12.8939 27.9929 8.80859 31.9922 8.80859C35.9929 8.80859 35.9929 12.8939 39.9934 12.8939C43.9927 12.8939 43.9927 8.80859 47.992 8.80859C51.9941 8.80859 51.9941 12.8939 55.996 12.8939C59.9981 12.8939 59.9981 8.80859 64 8.80859" stroke="#3B3834" stroke-width="3.40423" stroke-miterlimit="10"/>
</svg>
