<svg width="48" height="48" viewBox="0 0 48 48" fill="none" xmlns="http://www.w3.org/2000/svg">
<path fill-rule="evenodd" clip-rule="evenodd" d="M14.4 8.99844C14.4 7.24801 15.0954 5.56927 16.3331 4.33153C17.5709 3.09379 19.2496 2.39844 21 2.39844H27C28.7505 2.39844 30.4292 3.09379 31.667 4.33153C32.9047 5.56927 33.6 7.24801 33.6 8.99844V10.0616C34.9729 10.1936 36.3361 10.3544 37.6945 10.5416C40.9273 10.9952 43.2001 13.7984 43.2001 16.9664V25.292C43.2001 27.9944 41.5345 30.5504 38.8081 31.388C34.1233 32.8256 29.1504 33.5984 24 33.5984C18.8496 33.5984 13.8744 32.8256 9.19205 31.388C6.46565 30.5504 4.80005 27.9944 4.80005 25.292V16.9664C4.80005 13.796 7.07285 10.9928 10.3056 10.544C11.6669 10.3547 13.032 10.1939 14.4 10.0616V8.99844ZM30 8.99844V9.77844C26.0037 9.53796 21.9964 9.53796 18 9.77844V8.99844C18 7.34244 19.344 5.99844 21 5.99844H27C28.656 5.99844 30 7.34244 30 8.99844ZM24 23.9984C23.3635 23.9984 22.7531 24.2513 22.303 24.7014C21.8529 25.1515 21.6 25.7619 21.6 26.3984V26.4224C21.6 27.059 21.8529 27.6694 22.303 28.1195C22.7531 28.5696 23.3635 28.8224 24 28.8224H24.0241C24.6606 28.8224 25.271 28.5696 25.7211 28.1195C26.1712 27.6694 26.4241 27.059 26.4241 26.4224V26.3984C26.4241 25.7619 26.1712 25.1515 25.7211 24.7014C25.271 24.2513 24.6606 23.9984 24.0241 23.9984H24Z" fill="black"/>
<path d="M7.20007 36.1299V34.4883C7.50247 34.6155 7.81207 34.7283 8.13607 34.8291C13.1569 36.3699 18.4873 37.1979 24.0001 37.1979C29.5129 37.1979 34.8433 36.3699 39.8641 34.8291C40.1881 34.7307 40.4977 34.6155 40.8001 34.4883V36.1299C40.8001 39.3627 38.4361 42.2019 35.1289 42.5763C27.733 43.4088 20.2671 43.4088 12.8713 42.5763C9.56407 42.2019 7.20007 39.3627 7.20007 36.1299Z" fill="black"/>
</svg>
